<?xml version="1.0" encoding="UTF-8"?>
<svg xmlns="http://www.w3.org/2000/svg" xmlns:xlink="http://www.w3.org/1999/xlink" width="30pt" height="30.000001pt" viewBox="0 0 30 30.000001" version="1.2">
<defs>
<clipPath id="clip1">
  <path d="M 0.484375 0 L 29.515625 0 L 29.515625 29.03125 L 0.484375 29.03125 Z M 0.484375 0 "/>
</clipPath>
</defs>
<g id="surface1">
<g clip-path="url(#clip1)" clip-rule="nonzero">
<path style=" stroke:none;fill-rule:nonzero;fill:rgb(25.099182%,73.728943%,63.919067%);fill-opacity:1;" d="M 0.484375 14.515625 C 0.484375 6.5 6.984375 0 15 0 C 23.015625 0 29.515625 6.5 29.515625 14.515625 C 29.515625 22.53125 23.015625 29.03125 15 29.03125 C 6.984375 29.03125 0.484375 22.53125 0.484375 14.515625 Z M 0.484375 14.515625 "/>
</g>
<path style=" stroke:none;fill-rule:nonzero;fill:rgb(40.388489%,72.158813%,79.60968%);fill-opacity:1;" d="M 22.941406 21.953125 C 22.941406 23.363281 22.648438 24.082031 21.238281 24.082031 L 9.160156 24.082031 C 7.75 24.082031 7.457031 23.363281 7.457031 21.953125 L 7.457031 8.027344 C 7.457031 6.617188 7.75 5.898438 9.160156 5.898438 L 21.238281 5.898438 C 22.648438 5.898438 22.941406 6.617188 22.941406 8.027344 Z M 22.941406 21.953125 "/>
<path style=" stroke:none;fill-rule:nonzero;fill:rgb(100%,100%,100%);fill-opacity:1;" d="M 22.730469 21.757812 C 22.730469 23.132812 22.441406 23.832031 21.074219 23.832031 L 9.324219 23.832031 C 7.949219 23.832031 7.667969 23.132812 7.667969 21.757812 L 7.667969 8.21875 C 7.667969 6.84375 7.957031 6.148438 9.324219 6.148438 L 21.066406 6.148438 C 22.441406 6.148438 22.722656 6.84375 22.722656 8.21875 L 22.722656 21.757812 Z M 22.730469 21.757812 "/>
<path style=" stroke:none;fill-rule:nonzero;fill:rgb(97.648621%,94.898987%,60.389709%);fill-opacity:1;" d="M 17.699219 8.121094 L 21.109375 8.121094 L 21.109375 11.917969 L 17.699219 11.917969 Z M 17.699219 8.121094 "/>
<path style=" stroke:none;fill-rule:nonzero;fill:rgb(95.689392%,87.838745%,15.689087%);fill-opacity:1;" d="M 9.191406 8.109375 L 16.648438 8.109375 L 16.648438 8.835938 L 9.191406 8.835938 Z M 9.191406 8.109375 "/>
<path style=" stroke:none;fill-rule:nonzero;fill:rgb(95.689392%,87.838745%,15.689087%);fill-opacity:1;" d="M 9.191406 9.199219 L 16.648438 9.199219 L 16.648438 9.566406 L 9.191406 9.566406 Z M 9.191406 9.199219 "/>
<path style=" stroke:none;fill-rule:nonzero;fill:rgb(95.689392%,87.838745%,15.689087%);fill-opacity:1;" d="M 9.191406 9.816406 L 16.648438 9.816406 L 16.648438 10.1875 L 9.191406 10.1875 Z M 9.191406 9.816406 "/>
<path style=" stroke:none;fill-rule:nonzero;fill:rgb(95.689392%,87.838745%,15.689087%);fill-opacity:1;" d="M 9.191406 10.4375 L 16.648438 10.4375 L 16.648438 10.808594 L 9.191406 10.808594 Z M 9.191406 10.4375 "/>
<path style=" stroke:none;fill-rule:nonzero;fill:rgb(95.689392%,87.838745%,15.689087%);fill-opacity:1;" d="M 9.191406 11.0625 L 16.648438 11.0625 L 16.648438 11.433594 L 9.191406 11.433594 Z M 9.191406 11.0625 "/>
<path style=" stroke:none;fill-rule:nonzero;fill:rgb(40.388489%,72.158813%,79.60968%);fill-opacity:1;" d="M 9.191406 21.457031 L 21.242188 21.457031 L 21.242188 21.875 L 9.191406 21.875 Z M 9.191406 21.457031 "/>
<path style=" stroke:none;fill-rule:nonzero;fill:rgb(40.388489%,72.158813%,79.60968%);fill-opacity:1;" d="M 9.191406 22.308594 L 21.242188 22.308594 L 21.242188 22.730469 L 9.191406 22.730469 Z M 9.191406 22.308594 "/>
<path style=" stroke:none;fill-rule:nonzero;fill:rgb(40.388489%,72.158813%,79.60968%);fill-opacity:1;" d="M 9.191406 20.582031 L 21.242188 20.582031 L 21.242188 21.003906 L 9.191406 21.003906 Z M 9.191406 20.582031 "/>
<path style=" stroke:none;fill-rule:nonzero;fill:rgb(85.879517%,94.119263%,96.078491%);fill-opacity:1;" d="M 9.238281 13.207031 L 21.132812 13.207031 L 21.132812 20.035156 L 9.238281 20.035156 Z M 9.238281 13.207031 "/>
<path style=" stroke:none;fill-rule:nonzero;fill:rgb(42.349243%,75.289917%,46.669006%);fill-opacity:1;" d="M 20.996094 18.558594 L 19.386719 16.949219 C 19.386719 16.949219 18.925781 16.351562 18.5 16.382812 C 18.113281 16.40625 17.664062 16.886719 17.574219 16.984375 L 17.035156 16.445312 C 17.035156 16.445312 16.496094 15.75 15.996094 15.78125 C 15.492188 15.808594 14.894531 16.503906 14.894531 16.503906 L 14.730469 16.667969 L 13.710938 15.652344 C 13.710938 15.652344 13.046875 14.796875 12.429688 14.832031 C 11.816406 14.867188 11.078125 15.726562 11.078125 15.726562 L 9.371094 17.4375 L 9.371094 19.917969 L 20.996094 19.917969 Z M 20.996094 18.558594 "/>
<path style=" stroke:none;fill-rule:nonzero;fill:rgb(40.388489%,72.158813%,79.60968%);fill-opacity:1;" d="M 15.988281 14.65625 C 15.988281 14.644531 15.996094 14.640625 15.996094 14.628906 C 15.996094 14.457031 15.8125 14.324219 15.589844 14.324219 C 15.5625 14.324219 15.539062 14.328125 15.507812 14.335938 C 15.445312 14.246094 15.320312 14.183594 15.175781 14.183594 C 14.988281 14.183594 14.835938 14.289062 14.800781 14.417969 C 14.621094 14.453125 14.480469 14.574219 14.480469 14.722656 C 14.480469 14.863281 14.601562 14.976562 14.773438 15.019531 C 14.832031 15.148438 14.988281 15.242188 15.175781 15.242188 C 15.34375 15.242188 15.492188 15.164062 15.5625 15.054688 C 15.601562 15.066406 15.65625 15.078125 15.707031 15.078125 C 15.90625 15.078125 16.066406 14.953125 16.066406 14.808594 C 16.066406 14.757812 16.035156 14.699219 15.988281 14.65625 "/>
<path style=" stroke:none;fill-rule:nonzero;fill:rgb(40.388489%,72.158813%,79.60968%);fill-opacity:1;" d="M 17.871094 15.035156 C 17.871094 15.03125 17.867188 15.023438 17.867188 15.011719 C 17.867188 14.894531 17.996094 14.796875 18.152344 14.796875 C 18.175781 14.796875 18.195312 14.804688 18.210938 14.808594 C 18.257812 14.746094 18.347656 14.703125 18.453125 14.703125 C 18.585938 14.703125 18.691406 14.773438 18.714844 14.871094 C 18.84375 14.894531 18.945312 14.984375 18.945312 15.089844 C 18.945312 15.1875 18.855469 15.269531 18.738281 15.300781 C 18.699219 15.394531 18.585938 15.457031 18.453125 15.457031 C 18.328125 15.457031 18.222656 15.40625 18.175781 15.324219 C 18.148438 15.335938 18.113281 15.339844 18.078125 15.339844 C 17.9375 15.339844 17.824219 15.253906 17.824219 15.148438 C 17.8125 15.105469 17.835938 15.066406 17.871094 15.035156 "/>
<path style=" stroke:none;fill-rule:nonzero;fill:rgb(95.689392%,87.838745%,15.689087%);fill-opacity:1;" d="M 19.644531 10.550781 L 19.644531 10.375 C 19.910156 10.261719 20.085938 9.964844 20.113281 9.601562 C 20.160156 9.578125 20.195312 9.507812 20.195312 9.421875 C 20.195312 9.320312 20.148438 9.238281 20.089844 9.234375 C 20.007812 8.875 19.757812 8.695312 19.40625 8.695312 C 19.058594 8.695312 18.804688 8.875 18.722656 9.234375 C 18.664062 9.238281 18.617188 9.320312 18.617188 9.421875 C 18.617188 9.507812 18.652344 9.578125 18.699219 9.601562 C 18.726562 9.964844 18.902344 10.257812 19.164062 10.375 L 19.164062 10.554688 C 18.363281 10.5625 17.984375 10.65625 17.984375 11.238281 L 17.984375 11.90625 L 20.839844 11.90625 L 20.839844 11.238281 C 20.839844 10.648438 20.453125 10.5625 19.644531 10.550781 "/>
</g>
</svg>
