<?xml version="1.0" encoding="UTF-8"?>
<svg xmlns="http://www.w3.org/2000/svg" xmlns:xlink="http://www.w3.org/1999/xlink" width="30pt" height="30.000001pt" viewBox="0 0 30 30.000001" version="1.2">
<defs>
<clipPath id="clip1">
  <path d="M 0.484375 0 L 29.515625 0 L 29.515625 29.03125 L 0.484375 29.03125 Z M 0.484375 0 "/>
</clipPath>
</defs>
<g id="surface1">
<path style=" stroke:none;fill-rule:nonzero;fill:rgb(36.079407%,88.238525%,90.19928%);fill-opacity:1;" d="M 6.660156 14.335938 C 6.15625 12.570312 6.609375 8.9375 6.648438 8.621094 C 6.652344 8.546875 6.6875 8.476562 6.746094 8.425781 C 8.011719 7.324219 8.4375 8.800781 8.472656 8.9375 C 8.480469 8.964844 8.484375 8.992188 8.484375 9.019531 L 8.484375 12.410156 L 8.585938 12.835938 L 8.738281 13.09375 L 9.84375 13.914062 L 9.082031 12.886719 C 9.054688 12.855469 9.035156 12.816406 9.023438 12.777344 L 9.023438 12.773438 C 8.371094 10.339844 10.21875 11.324219 10.425781 11.441406 C 10.457031 11.453125 10.484375 11.476562 10.511719 11.503906 L 14.449219 15.78125 C 14.503906 15.832031 14.535156 15.902344 14.535156 15.984375 L 14.535156 20.734375 C 14.535156 20.886719 14.410156 21.011719 14.257812 21.011719 L 10.761719 21.011719 C 10.609375 21.011719 10.484375 20.886719 10.484375 20.734375 L 10.484375 18.121094 C 9.835938 17.730469 7.136719 16.003906 6.660156 14.335938 "/>
<path style=" stroke:none;fill-rule:nonzero;fill:rgb(36.079407%,88.238525%,90.19928%);fill-opacity:1;" d="M 23.339844 14.335938 C 23.84375 12.570312 23.390625 8.9375 23.351562 8.621094 C 23.347656 8.546875 23.3125 8.476562 23.253906 8.425781 C 21.988281 7.324219 21.5625 8.800781 21.527344 8.9375 C 21.519531 8.964844 21.515625 8.992188 21.515625 9.019531 L 21.515625 12.410156 L 21.414062 12.835938 L 21.261719 13.09375 L 20.15625 13.914062 L 20.917969 12.886719 C 20.945312 12.855469 20.964844 12.816406 20.976562 12.777344 L 20.976562 12.773438 C 21.628906 10.339844 19.78125 11.324219 19.574219 11.441406 C 19.542969 11.453125 19.515625 11.476562 19.488281 11.503906 L 15.550781 15.78125 C 15.496094 15.832031 15.464844 15.902344 15.464844 15.984375 L 15.464844 20.734375 C 15.464844 20.886719 15.589844 21.011719 15.742188 21.011719 L 19.238281 21.011719 C 19.390625 21.011719 19.515625 20.886719 19.515625 20.734375 L 19.515625 18.121094 C 20.164062 17.730469 22.863281 16.003906 23.339844 14.335938 "/>
<g clip-path="url(#clip1)" clip-rule="nonzero">
<path style=" stroke:none;fill-rule:evenodd;fill:rgb(36.079407%,88.238525%,90.19928%);fill-opacity:1;" d="M 15 0 C 23.015625 0 29.515625 6.5 29.515625 14.515625 C 29.515625 22.53125 23.015625 29.03125 15 29.03125 C 6.984375 29.03125 0.484375 22.53125 0.484375 14.515625 C 0.484375 6.5 6.984375 0 15 0 Z M 15 1.609375 C 7.871094 1.609375 2.089844 7.386719 2.089844 14.515625 C 2.089844 21.644531 7.871094 27.425781 15 27.425781 C 22.128906 27.425781 27.910156 21.644531 27.910156 14.515625 C 27.910156 7.386719 22.128906 1.609375 15 1.609375 "/>
</g>
</g>
</svg>
