<?xml version="1.0" encoding="UTF-8"?>
<svg xmlns="http://www.w3.org/2000/svg" xmlns:xlink="http://www.w3.org/1999/xlink" width="375pt" height="374.999991pt" viewBox="0 0 375 374.999991" version="1.2">
<g id="surface1">
<path style=" stroke:none;fill-rule:nonzero;fill:rgb(100%,56.858826%,30.198669%);fill-opacity:1;" d="M 109.464844 30.46875 C 109.464844 30.46875 50.15625 47.324219 46.90625 107.867188 C 46.90625 107.867188 48.203125 127.886719 50.972656 136.71875 C 52.78125 142.484375 62.132812 167.839844 58.226562 176.484375 C 53.074219 187.886719 33.015625 193.371094 33.015625 193.371094 C 33.015625 193.371094 33.558594 196.984375 35.003906 199.871094 C 36.449219 202.761719 47.835938 214.5 49.460938 219.558594 C 51.089844 224.613281 63.894531 249.199219 66.089844 258.027344 C 68.863281 269.183594 131.15625 257.121094 144.164062 252.609375 C 162.863281 246.121094 182.3125 224.078125 188.820312 212.703125 C 188.820312 212.703125 196.140625 194.824219 196.953125 182.636719 C 196.953125 182.636719 204.816406 174.625 216.875 166.789062 C 233.140625 156.222656 260.667969 97.367188 218.941406 46.917969 C 186.003906 7.097656 109.464844 30.46875 109.464844 30.46875 "/>
<path style=" stroke:none;fill-rule:nonzero;fill:rgb(21.958923%,71.369934%,100%);fill-opacity:1;" d="M 60.652344 66.164062 C 60.652344 66.164062 115.851562 80.464844 161.398438 132.484375 C 161.398438 132.484375 174.414062 241.398438 70.300781 273.910156 C 70.300781 273.910156 46.710938 274.953125 41.832031 290.285156 L 41.832031 301.542969 C 41.832031 301.542969 26.640625 299.105469 23.253906 313.738281 C 19.871094 328.367188 27.191406 335.644531 36.410156 353.375 C 36.410156 353.375 24.078125 355.8125 23.265625 363.125 C 22.453125 370.445312 72.066406 371.257812 159.101562 350.125 C 246.132812 328.992188 285.632812 330.804688 300.269531 342.996094 C 300.269531 342.996094 314.316406 332.191406 287.472656 310.484375 C 287.472656 310.484375 306.632812 309.835938 290.367188 286.949219 C 290.367188 286.949219 375.320312 285.289062 293.773438 108.488281 C 269.195312 55.199219 265.839844 31.886719 218.941406 13.175781 C 185.914062 0 83.539062 2.285156 60.652344 66.164062 "/>
<path style=" stroke:none;fill-rule:nonzero;fill:rgb(100%,56.858826%,30.198669%);fill-opacity:1;" d="M 59.039062 156.347656 C 59.039062 156.347656 53.980469 157.972656 50.90625 156.347656 C 50.90625 156.347656 51.519531 160.058594 57.84375 160.238281 C 57.84375 160.238281 61.753906 168.628906 85.246094 168.449219 L 85.246094 173.324219 C 85.246094 173.324219 87.339844 170.015625 88.96875 166.945312 C 88.96875 166.945312 69.339844 166.28125 59.039062 156.347656 "/>
<path style=" stroke:none;fill-rule:nonzero;fill:rgb(100%,56.858826%,30.198669%);fill-opacity:1;" d="M 63.242188 177.296875 C 63.242188 177.296875 67.714844 178.921875 72.460938 178.382812 C 72.460938 178.382812 63.378906 180.816406 63.242188 177.296875 "/>
<path style=" stroke:none;fill-rule:nonzero;fill:rgb(32.159424%,44.309998%,100%);fill-opacity:1;" d="M 218.941406 13.175781 C 218.488281 12.996094 218.019531 12.816406 217.539062 12.644531 C 223.554688 17.941406 228.75 23.65625 228.75 23.65625 C 271.585938 74.402344 285.140625 180.007812 284.597656 215.765625 C 284.054688 251.523438 245.558594 266.835938 245.558594 266.835938 C 245.558594 266.835938 245.597656 267.199219 243.390625 267.238281 C 198.117188 268.050781 169.652344 276.449219 169.652344 276.449219 C 203.265625 272.113281 247.1875 281.863281 247.1875 281.863281 C 284.328125 297.035156 240.9375 294.328125 240.9375 294.328125 C 215.714844 293.242188 163.683594 311.664062 139.828125 321.417969 C 115.972656 331.171875 58.699219 338.664062 28.605469 326.664062 C 26.390625 325.78125 24.46875 325.273438 22.804688 325.089844 C 24.296875 333.492188 29.875 340.808594 36.410156 353.375 C 36.410156 353.375 24.078125 355.8125 23.265625 363.125 C 22.453125 370.445312 72.066406 371.257812 159.101562 350.125 C 246.132812 328.992188 285.632812 330.804688 300.269531 342.996094 C 300.269531 342.996094 314.316406 332.191406 287.472656 310.484375 C 287.472656 310.484375 306.632812 309.835938 290.367188 286.949219 C 290.367188 286.949219 375.320312 285.289062 293.773438 108.488281 C 269.195312 55.199219 265.839844 31.886719 218.941406 13.175781 "/>
<path style=" stroke:none;fill-rule:nonzero;fill:rgb(32.159424%,44.309998%,100%);fill-opacity:1;" d="M 69.9375 60.328125 C 69.9375 60.328125 144.789062 81.050781 185.917969 158.660156 C 185.917969 158.660156 163.609375 96.898438 92.449219 60.328125 C 92.449219 60.328125 66.339844 50.101562 69.9375 60.328125 "/>
<path style=" stroke:none;fill-rule:nonzero;fill:rgb(32.159424%,44.309998%,100%);fill-opacity:1;" d="M 180.28125 190.222656 C 180.28125 190.222656 160.230469 267.152344 72.460938 278.527344 C 72.460938 278.527344 183.535156 277.859375 180.28125 190.222656 "/>
<path style=" stroke:none;fill-rule:nonzero;fill:rgb(32.159424%,44.309998%,100%);fill-opacity:1;" d="M 44.402344 302.273438 C 44.402344 302.273438 61.753906 308.773438 80.546875 307.511719 C 99.34375 306.246094 115.25 301.914062 123.742188 301.191406 C 132.238281 300.46875 125.550781 294.867188 113.441406 294.148438 C 101.332031 293.425781 77.464844 297.964844 67.851562 297.578125 C 54.433594 297.035156 45.847656 291.257812 44.402344 291.257812 C 42.953125 291.257812 43.859375 298.121094 44.402344 302.273438 "/>
</g>
</svg>
