<?xml version="1.0" encoding="UTF-8"?>
<svg xmlns="http://www.w3.org/2000/svg" xmlns:xlink="http://www.w3.org/1999/xlink" width="30pt" height="30.000001pt" viewBox="0 0 30 30.000001" version="1.2">
<defs>
<clipPath id="clip1">
  <path d="M 12 6 L 29 6 L 29 28.730469 L 12 28.730469 Z M 12 6 "/>
</clipPath>
<clipPath id="clip2">
  <path d="M 28 12 L 29.515625 12 L 29.515625 15 L 28 15 Z M 28 12 "/>
</clipPath>
<clipPath id="clip3">
  <path d="M 28 15 L 29.515625 15 L 29.515625 17 L 28 17 Z M 28 15 "/>
</clipPath>
<clipPath id="clip4">
  <path d="M 27 17 L 29.515625 17 L 29.515625 19 L 27 19 Z M 27 17 "/>
</clipPath>
<clipPath id="clip5">
  <path d="M 26 19 L 29.515625 19 L 29.515625 21 L 26 21 Z M 26 19 "/>
</clipPath>
<clipPath id="clip6">
  <path d="M 17 26 L 21 26 L 21 28.730469 L 17 28.730469 Z M 17 26 "/>
</clipPath>
<clipPath id="clip7">
  <path d="M 16 14 L 28 14 L 28 28.730469 L 16 28.730469 Z M 16 14 "/>
</clipPath>
<clipPath id="clip8">
  <path d="M 3 6 L 17 6 L 17 28.730469 L 3 28.730469 Z M 3 6 "/>
</clipPath>
<clipPath id="clip9">
  <path d="M 0.484375 10 L 19 10 L 19 25 L 0.484375 25 Z M 0.484375 10 "/>
</clipPath>
</defs>
<g id="surface1">
<g clip-path="url(#clip1)" clip-rule="nonzero">
<path style=" stroke:none;fill-rule:nonzero;fill:rgb(0%,92.158508%,68.629456%);fill-opacity:1;" d="M 22.339844 6.617188 C 22.339844 6.617188 22.828125 6.832031 23.59375 7.328125 C 24.351562 7.828125 25.402344 8.628906 26.371094 9.847656 C 26.851562 10.457031 27.304688 11.175781 27.644531 11.992188 C 27.988281 12.808594 28.226562 13.722656 28.304688 14.683594 C 28.386719 15.644531 28.296875 16.644531 28.085938 17.628906 C 28.023438 17.875 27.964844 18.121094 27.902344 18.367188 C 27.824219 18.605469 27.75 18.847656 27.671875 19.09375 C 27.488281 19.582031 27.292969 20.035156 27.101562 20.507812 L 26.742188 21.195312 C 26.613281 21.417969 26.515625 21.660156 26.363281 21.867188 C 26.070312 22.289062 25.8125 22.734375 25.464844 23.113281 C 24.835938 23.914062 24.054688 24.578125 23.253906 25.140625 C 22.453125 25.710938 21.570312 26.097656 20.71875 26.402344 C 19.867188 26.699219 19.023438 26.878906 18.238281 26.984375 C 17.457031 27.101562 16.734375 27.117188 16.128906 27.207031 C 15.519531 27.296875 15.003906 27.4375 14.597656 27.585938 C 14.195312 27.738281 13.90625 27.902344 13.722656 28.027344 C 13.539062 28.148438 13.453125 28.226562 13.453125 28.226562 C 13.320312 28.34375 13.113281 28.332031 12.996094 28.203125 C 12.875 28.074219 12.886719 27.875 13.019531 27.757812 C 13.027344 27.753906 13.03125 27.75 13.035156 27.742188 L 13.050781 27.730469 C 13.050781 27.730469 13.164062 27.644531 13.390625 27.515625 C 13.617188 27.382812 13.960938 27.222656 14.414062 27.078125 C 14.863281 26.933594 15.421875 26.8125 16.066406 26.742188 C 16.714844 26.660156 17.425781 26.664062 18.183594 26.566406 C 18.941406 26.472656 19.757812 26.304688 20.582031 26.023438 C 20.792969 25.960938 21 25.878906 21.203125 25.792969 C 21.40625 25.703125 21.625 25.632812 21.824219 25.519531 C 22.027344 25.414062 22.230469 25.3125 22.4375 25.203125 C 22.636719 25.082031 22.832031 24.957031 23.035156 24.828125 C 23.808594 24.296875 24.566406 23.664062 25.175781 22.886719 C 25.511719 22.519531 25.761719 22.089844 26.046875 21.679688 C 26.195312 21.480469 26.289062 21.25 26.414062 21.03125 L 26.761719 20.375 C 26.949219 19.910156 27.15625 19.433594 27.324219 18.980469 C 27.402344 18.742188 27.476562 18.507812 27.550781 18.273438 C 27.613281 18.03125 27.671875 17.792969 27.730469 17.554688 C 27.941406 16.601562 28.027344 15.632812 27.949219 14.710938 C 27.875 13.785156 27.648438 12.910156 27.320312 12.121094 C 26.992188 11.335938 26.558594 10.640625 26.09375 10.050781 C 25.160156 8.871094 24.140625 8.089844 23.402344 7.601562 C 23.03125 7.359375 22.726562 7.1875 22.519531 7.078125 C 22.308594 6.964844 22.195312 6.914062 22.195312 6.914062 C 22.113281 6.878906 22.074219 6.78125 22.113281 6.699219 C 22.152344 6.617188 22.25 6.578125 22.335938 6.617188 L 22.339844 6.617188 "/>
</g>
<path style=" stroke:none;fill-rule:nonzero;fill:rgb(0%,92.158508%,68.629456%);fill-opacity:1;" d="M 22.585938 4.980469 C 22.585938 4.980469 23.972656 5.734375 23.28125 7.1875 C 22.5625 6.867188 22.386719 6.109375 22.585938 4.980469 "/>
<path style=" stroke:none;fill-rule:nonzero;fill:rgb(0%,92.158508%,68.629456%);fill-opacity:1;" d="M 20.519531 5.855469 C 20.519531 5.855469 22.019531 5.351562 22.679688 6.820312 C 21.949219 7.128906 21.25 6.75 20.519531 5.855469 "/>
<path style=" stroke:none;fill-rule:nonzero;fill:rgb(0%,92.158508%,68.629456%);fill-opacity:1;" d="M 21.113281 7.917969 C 21.113281 7.917969 21.914062 6.585938 23.398438 7.289062 C 23.050781 7.984375 22.265625 8.136719 21.113281 7.917969 "/>
<path style=" stroke:none;fill-rule:nonzero;fill:rgb(0%,92.158508%,68.629456%);fill-opacity:1;" d="M 24.34375 6.046875 C 24.34375 6.046875 25.667969 6.898438 24.867188 8.296875 C 24.171875 7.921875 24.054688 7.152344 24.34375 6.046875 "/>
<path style=" stroke:none;fill-rule:nonzero;fill:rgb(0%,92.158508%,68.629456%);fill-opacity:1;" d="M 22.539062 8.570312 C 22.539062 8.570312 23.5625 7.390625 24.902344 8.328125 C 24.4375 8.953125 23.636719 8.976562 22.539062 8.570312 "/>
<path style=" stroke:none;fill-rule:nonzero;fill:rgb(0%,92.158508%,68.629456%);fill-opacity:1;" d="M 26.222656 7.273438 C 26.222656 7.273438 27.230469 8.464844 26.039062 9.574219 C 25.488281 9.019531 25.613281 8.25 26.222656 7.273438 "/>
<path style=" stroke:none;fill-rule:nonzero;fill:rgb(0%,92.158508%,68.629456%);fill-opacity:1;" d="M 23.582031 9.453125 C 23.582031 9.453125 24.820312 8.488281 25.949219 9.660156 C 25.371094 10.1875 24.578125 10.058594 23.582031 9.453125 "/>
<path style=" stroke:none;fill-rule:nonzero;fill:rgb(0%,92.158508%,68.629456%);fill-opacity:1;" d="M 27.617188 8.894531 C 27.617188 8.894531 28.4375 10.210938 27.097656 11.144531 C 26.632812 10.515625 26.867188 9.773438 27.617188 8.894531 "/>
<path style=" stroke:none;fill-rule:nonzero;fill:rgb(0%,92.158508%,68.629456%);fill-opacity:1;" d="M 24.683594 10.683594 C 24.683594 10.683594 26.050781 9.902344 26.996094 11.214844 C 26.34375 11.660156 25.582031 11.421875 24.683594 10.683594 "/>
<path style=" stroke:none;fill-rule:nonzero;fill:rgb(0%,92.158508%,68.629456%);fill-opacity:1;" d="M 28.570312 10.847656 C 28.570312 10.847656 29.230469 12.25 27.785156 13.027344 C 27.398438 12.351562 27.722656 11.640625 28.570312 10.847656 "/>
<path style=" stroke:none;fill-rule:nonzero;fill:rgb(0%,92.158508%,68.629456%);fill-opacity:1;" d="M 25.441406 12.296875 C 25.441406 12.296875 26.894531 11.675781 27.675781 13.085938 C 26.976562 13.453125 26.246094 13.132812 25.441406 12.296875 "/>
<g clip-path="url(#clip2)" clip-rule="nonzero">
<path style=" stroke:none;fill-rule:nonzero;fill:rgb(0%,92.158508%,68.629456%);fill-opacity:1;" d="M 29.574219 12.988281 C 29.574219 12.988281 29.820312 14.511719 28.210938 14.882812 C 28.027344 14.128906 28.535156 13.527344 29.574219 12.988281 "/>
</g>
<path style=" stroke:none;fill-rule:nonzero;fill:rgb(0%,92.158508%,68.629456%);fill-opacity:1;" d="M 26.160156 13.566406 C 26.160156 13.566406 27.730469 13.347656 28.089844 14.910156 C 27.316406 15.078125 26.703125 14.578125 26.160156 13.566406 "/>
<g clip-path="url(#clip3)" clip-rule="nonzero">
<path style=" stroke:none;fill-rule:nonzero;fill:rgb(0%,92.158508%,68.629456%);fill-opacity:1;" d="M 29.78125 15.289062 C 29.78125 15.289062 29.777344 16.828125 28.128906 16.945312 C 28.070312 16.175781 28.671875 15.660156 29.78125 15.289062 "/>
</g>
<path style=" stroke:none;fill-rule:nonzero;fill:rgb(0%,92.158508%,68.629456%);fill-opacity:1;" d="M 26.316406 15.335938 C 26.316406 15.335938 27.902344 15.355469 28.003906 16.957031 C 27.210938 17.003906 26.6875 16.417969 26.316406 15.335938 "/>
<g clip-path="url(#clip4)" clip-rule="nonzero">
<path style=" stroke:none;fill-rule:nonzero;fill:rgb(0%,92.158508%,68.629456%);fill-opacity:1;" d="M 29.664062 17.496094 C 29.664062 17.496094 29.40625 19.019531 27.761719 18.878906 C 27.828125 18.109375 28.507812 17.691406 29.664062 17.496094 "/>
</g>
<path style=" stroke:none;fill-rule:nonzero;fill:rgb(0%,92.158508%,68.629456%);fill-opacity:1;" d="M 26.238281 17.003906 C 26.238281 17.003906 27.800781 17.273438 27.636719 18.867188 C 26.847656 18.792969 26.425781 18.128906 26.238281 17.003906 "/>
<g clip-path="url(#clip5)" clip-rule="nonzero">
<path style=" stroke:none;fill-rule:nonzero;fill:rgb(0%,92.158508%,68.629456%);fill-opacity:1;" d="M 29.289062 19.621094 C 29.289062 19.621094 28.65625 21.148438 26.972656 20.632812 C 27.226562 19.847656 28.035156 19.5625 29.289062 19.621094 "/>
</g>
<path style=" stroke:none;fill-rule:nonzero;fill:rgb(0%,92.158508%,68.629456%);fill-opacity:1;" d="M 25.828125 18.332031 C 25.828125 18.332031 27.398438 18.964844 26.84375 20.59375 C 26.039062 20.335938 25.757812 19.550781 25.828125 18.332031 "/>
<path style=" stroke:none;fill-rule:nonzero;fill:rgb(0%,92.158508%,68.629456%);fill-opacity:1;" d="M 28.53125 21.667969 C 28.53125 21.667969 27.582031 23.109375 25.96875 22.265625 C 26.386719 21.511719 27.261719 21.375 28.53125 21.667969 "/>
<path style=" stroke:none;fill-rule:nonzero;fill:rgb(0%,92.158508%,68.629456%);fill-opacity:1;" d="M 25.257812 19.707031 C 25.257812 19.707031 26.730469 20.644531 25.84375 22.203125 C 25.074219 21.792969 24.941406 20.9375 25.257812 19.707031 "/>
<path style=" stroke:none;fill-rule:nonzero;fill:rgb(0%,92.158508%,68.629456%);fill-opacity:1;" d="M 27.527344 23.328125 C 27.527344 23.328125 26.449219 24.679688 24.917969 23.703125 C 25.402344 22.988281 26.289062 22.925781 27.527344 23.328125 "/>
<path style=" stroke:none;fill-rule:nonzero;fill:rgb(0%,92.158508%,68.629456%);fill-opacity:1;" d="M 24.449219 21.089844 C 24.449219 21.089844 25.828125 22.15625 24.800781 23.628906 C 24.070312 23.148438 24.019531 22.289062 24.449219 21.089844 "/>
<path style=" stroke:none;fill-rule:nonzero;fill:rgb(0%,92.158508%,68.629456%);fill-opacity:1;" d="M 26.007812 24.941406 C 26.007812 24.941406 24.726562 26.113281 23.375 24.914062 C 23.964844 24.28125 24.851562 24.355469 26.007812 24.941406 "/>
<path style=" stroke:none;fill-rule:nonzero;fill:rgb(0%,92.158508%,68.629456%);fill-opacity:1;" d="M 23.328125 22.265625 C 23.328125 22.265625 24.519531 23.523438 23.269531 24.824219 C 22.625 24.238281 22.710938 23.382812 23.328125 22.265625 "/>
<path style=" stroke:none;fill-rule:nonzero;fill:rgb(0%,92.158508%,68.629456%);fill-opacity:1;" d="M 22.191406 23.230469 C 22.191406 23.230469 23.171875 24.652344 21.734375 25.75 C 21.1875 25.082031 21.410156 24.242188 22.191406 23.230469 "/>
<path style=" stroke:none;fill-rule:nonzero;fill:rgb(0%,92.158508%,68.629456%);fill-opacity:1;" d="M 22.386719 27.5 C 22.386719 27.5 20.75 28.128906 19.949219 26.53125 C 20.742188 26.152344 21.535156 26.539062 22.386719 27.5 "/>
<path style=" stroke:none;fill-rule:nonzero;fill:rgb(0%,92.158508%,68.629456%);fill-opacity:1;" d="M 20.914062 24.050781 C 20.914062 24.050781 21.542969 25.648438 19.886719 26.40625 C 19.507812 25.632812 19.917969 24.867188 20.914062 24.050781 "/>
<g clip-path="url(#clip6)" clip-rule="nonzero">
<path style=" stroke:none;fill-rule:nonzero;fill:rgb(0%,92.158508%,68.629456%);fill-opacity:1;" d="M 20.140625 28.421875 C 20.140625 28.421875 18.40625 28.714844 17.957031 26.988281 C 18.8125 26.777344 19.507812 27.3125 20.140625 28.421875 "/>
</g>
<path style=" stroke:none;fill-rule:nonzero;fill:rgb(0%,92.158508%,68.629456%);fill-opacity:1;" d="M 19.460938 24.605469 C 19.460938 24.605469 19.792969 26.289062 18.023438 26.753906 C 17.792969 25.925781 18.332031 25.242188 19.460938 24.605469 "/>
<g clip-path="url(#clip7)" clip-rule="nonzero">
<path style=" stroke:none;fill-rule:nonzero;fill:rgb(100%,100%,100%);fill-opacity:1;" d="M 16.457031 26.308594 L 22.351562 28.101562 C 22.351562 28.101562 23.632812 28.222656 23.660156 28.113281 C 23.6875 28.007812 27.375 15.261719 27.375 15.261719 L 25.824219 14.777344 L 16.457031 26.308594 "/>
</g>
<path style=" stroke:none;fill-rule:nonzero;fill:rgb(100%,100%,100%);fill-opacity:1;" d="M 13.195312 25.175781 L 13.871094 25.015625 L 22.984375 27.710938 L 26.699219 15.421875 L 24.988281 14.464844 L 23.996094 11.917969 L 14.378906 19.625 L 13.195312 25.175781 "/>
<path style=" stroke:none;fill-rule:nonzero;fill:rgb(65.489197%,58.428955%,95.689392%);fill-opacity:1;" d="M 7.636719 9.480469 C 7.636719 9.480469 13.121094 8.761719 15.867188 12.117188 C 12.828125 23.675781 12.738281 23.628906 12.738281 23.628906 C 12.738281 23.628906 9.097656 20.640625 4.375 20.597656 C 7.390625 10.292969 7.636719 9.480469 7.636719 9.480469 "/>
<path style=" stroke:none;fill-rule:nonzero;fill:rgb(65.489197%,58.428955%,95.689392%);fill-opacity:1;" d="M 21.621094 25.027344 C 21.621094 25.027344 13.097656 23.046875 12.71875 23.65625 C 14.925781 17.226562 16.460938 12.203125 16.460938 12.203125 C 16.460938 12.203125 21.914062 11.246094 24.617188 13.105469 C 21.578125 24.988281 21.621094 25.027344 21.621094 25.027344 "/>
<path style=" stroke:none;fill-rule:nonzero;fill:rgb(65.489197%,58.428955%,95.689392%);fill-opacity:1;" d="M 24.65625 14.683594 L 21.832031 26 C 21.832031 26 17.792969 23.910156 12.535156 23.777344 C 10.992188 22.707031 9.199219 22.011719 7.824219 21.613281 C 7.992188 21.785156 7.902344 22.164062 7.984375 22.367188 C 8.089844 22.265625 8.125 22.167969 8.246094 22.191406 C 8.398438 22.226562 8.804688 22.90625 9.046875 23.277344 L 9.398438 23 L 10.085938 23.722656 L 22.800781 27.050781 L 26.09375 15.570312 L 24.65625 14.683594 "/>
<path style=" stroke:none;fill-rule:nonzero;fill:rgb(65.489197%,58.428955%,95.689392%);fill-opacity:1;" d="M 4.75 17.332031 C 4.636719 17.492188 3.222656 21.875 3.222656 21.875 L 11.4375 24.855469 C 11.4375 24.855469 12.167969 26.199219 13.605469 25.390625 C 23.195312 27.953125 23.195312 27.953125 23.195312 27.953125 L 26.878906 15.34375 L 25.417969 15.019531 L 26.375 15.476562 L 22.96875 27.277344 L 13.605469 24.828125 C 13.605469 24.828125 12.058594 25.015625 11.746094 24.316406 C 4.828125 22.574219 4.5 21.574219 4.5 21.574219 L 4.089844 20.523438 L 4.75 17.332031 "/>
<path style=" stroke:none;fill-rule:nonzero;fill:rgb(0%,92.158508%,68.629456%);fill-opacity:1;" d="M 18.769531 11.664062 C 18.746094 11.664062 18.722656 11.65625 18.699219 11.648438 C 18.621094 11.609375 18.582031 11.515625 18.621094 11.4375 C 21.585938 5.375 17.449219 2.097656 17.40625 2.066406 C 17.335938 2.011719 17.324219 1.914062 17.382812 1.847656 C 17.4375 1.777344 17.542969 1.769531 17.609375 1.820312 C 17.65625 1.855469 21.988281 5.285156 18.917969 11.570312 C 18.890625 11.628906 18.832031 11.664062 18.769531 11.664062 "/>
<path style=" stroke:none;fill-rule:nonzero;fill:rgb(65.489197%,58.428955%,95.689392%);fill-opacity:1;" d="M 16.773438 0.652344 C 16.738281 0.652344 16.703125 0.640625 16.671875 0.617188 C 16.632812 0.585938 16.613281 0.539062 16.613281 0.492188 C 16.613281 0.457031 16.621094 0.425781 16.648438 0.394531 L 16.898438 0.0976562 C 16.957031 0.03125 17.058594 0.0195312 17.128906 0.0742188 C 17.167969 0.105469 17.191406 0.152344 17.191406 0.195312 C 17.191406 0.230469 17.179688 0.265625 17.152344 0.292969 L 16.902344 0.59375 C 16.871094 0.628906 16.824219 0.652344 16.773438 0.652344 "/>
<path style=" stroke:none;fill-rule:nonzero;fill:rgb(65.489197%,58.428955%,95.689392%);fill-opacity:1;" d="M 16.082031 1.550781 C 16.042969 1.550781 16.007812 1.539062 15.976562 1.515625 C 15.9375 1.484375 15.917969 1.4375 15.917969 1.394531 C 15.917969 1.359375 15.929688 1.324219 15.953125 1.296875 L 16.203125 0.996094 C 16.261719 0.929688 16.363281 0.917969 16.433594 0.972656 C 16.472656 1.003906 16.496094 1.050781 16.496094 1.097656 C 16.496094 1.128906 16.484375 1.164062 16.457031 1.195312 L 16.207031 1.492188 C 16.175781 1.53125 16.128906 1.550781 16.082031 1.550781 "/>
<path style=" stroke:none;fill-rule:nonzero;fill:rgb(65.489197%,58.428955%,95.689392%);fill-opacity:1;" d="M 16.304688 0.753906 C 16.269531 0.753906 16.230469 0.742188 16.199219 0.71875 L 15.890625 0.476562 C 15.851562 0.445312 15.828125 0.402344 15.828125 0.355469 C 15.828125 0.320312 15.84375 0.285156 15.867188 0.257812 C 15.921875 0.191406 16.027344 0.179688 16.097656 0.234375 L 16.40625 0.472656 C 16.449219 0.503906 16.46875 0.550781 16.46875 0.597656 C 16.46875 0.632812 16.457031 0.664062 16.433594 0.695312 C 16.398438 0.734375 16.351562 0.753906 16.304688 0.753906 "/>
<path style=" stroke:none;fill-rule:nonzero;fill:rgb(65.489197%,58.428955%,95.689392%);fill-opacity:1;" d="M 17.203125 1.398438 C 17.167969 1.398438 17.128906 1.386719 17.101562 1.363281 L 16.789062 1.125 C 16.75 1.09375 16.730469 1.046875 16.730469 1.003906 C 16.730469 0.96875 16.742188 0.933594 16.765625 0.902344 C 16.820312 0.835938 16.925781 0.828125 16.996094 0.878906 L 17.304688 1.121094 C 17.34375 1.152344 17.367188 1.199219 17.367188 1.242188 C 17.367188 1.277344 17.355469 1.3125 17.328125 1.339844 C 17.296875 1.378906 17.25 1.398438 17.203125 1.398438 "/>
<path style=" stroke:none;fill-rule:nonzero;fill:rgb(65.489197%,58.428955%,95.689392%);fill-opacity:1;" d="M 13.851562 1.265625 C 13.8125 1.265625 13.773438 1.25 13.742188 1.222656 C 13.707031 1.191406 13.6875 1.148438 13.6875 1.105469 C 13.6875 1.070312 13.703125 1.03125 13.730469 1.003906 L 13.996094 0.714844 C 14.058594 0.652344 14.160156 0.648438 14.226562 0.703125 C 14.265625 0.734375 14.28125 0.777344 14.28125 0.820312 C 14.28125 0.859375 14.269531 0.894531 14.242188 0.925781 L 13.972656 1.210938 C 13.941406 1.246094 13.898438 1.265625 13.851562 1.265625 "/>
<path style=" stroke:none;fill-rule:nonzero;fill:rgb(65.489197%,58.428955%,95.689392%);fill-opacity:1;" d="M 13.113281 2.128906 C 13.074219 2.128906 13.035156 2.117188 13.003906 2.089844 C 12.96875 2.058594 12.949219 2.015625 12.949219 1.972656 C 12.949219 1.9375 12.960938 1.898438 12.992188 1.867188 L 13.257812 1.582031 C 13.316406 1.519531 13.421875 1.511719 13.488281 1.570312 C 13.523438 1.601562 13.542969 1.644531 13.542969 1.6875 C 13.542969 1.726562 13.527344 1.761719 13.5 1.792969 L 13.234375 2.078125 C 13.203125 2.113281 13.15625 2.128906 13.113281 2.128906 "/>
<path style=" stroke:none;fill-rule:nonzero;fill:rgb(65.489197%,58.428955%,95.689392%);fill-opacity:1;" d="M 13.378906 1.34375 C 13.339844 1.34375 13.300781 1.332031 13.269531 1.304688 L 12.96875 1.050781 C 12.933594 1.019531 12.914062 0.976562 12.914062 0.933594 C 12.914062 0.894531 12.929688 0.859375 12.957031 0.828125 C 13.019531 0.761719 13.121094 0.757812 13.1875 0.816406 L 13.484375 1.070312 C 13.523438 1.101562 13.539062 1.144531 13.539062 1.1875 C 13.539062 1.222656 13.527344 1.261719 13.5 1.292969 C 13.464844 1.324219 13.421875 1.34375 13.378906 1.34375 "/>
<path style=" stroke:none;fill-rule:nonzero;fill:rgb(65.489197%,58.428955%,95.689392%);fill-opacity:1;" d="M 14.242188 2.03125 C 14.203125 2.03125 14.164062 2.019531 14.132812 1.992188 L 13.835938 1.738281 C 13.796875 1.707031 13.78125 1.664062 13.78125 1.621094 C 13.78125 1.582031 13.792969 1.546875 13.820312 1.515625 C 13.882812 1.453125 13.984375 1.445312 14.050781 1.503906 L 14.351562 1.757812 C 14.386719 1.789062 14.40625 1.832031 14.40625 1.875 C 14.40625 1.914062 14.390625 1.949219 14.363281 1.980469 C 14.332031 2.015625 14.285156 2.03125 14.242188 2.03125 "/>
<path style=" stroke:none;fill-rule:nonzero;fill:rgb(65.489197%,58.428955%,95.689392%);fill-opacity:1;" d="M 11.285156 3.050781 C 11.25 3.050781 11.210938 3.039062 11.179688 3.015625 C 11.144531 2.984375 11.121094 2.941406 11.121094 2.894531 C 11.121094 2.859375 11.132812 2.824219 11.160156 2.796875 L 11.417969 2.503906 C 11.472656 2.433594 11.578125 2.425781 11.648438 2.480469 C 11.683594 2.511719 11.707031 2.558594 11.707031 2.601562 C 11.707031 2.636719 11.695312 2.671875 11.667969 2.703125 L 11.410156 2.996094 C 11.378906 3.035156 11.332031 3.050781 11.285156 3.050781 "/>
<path style=" stroke:none;fill-rule:nonzero;fill:rgb(65.489197%,58.428955%,95.689392%);fill-opacity:1;" d="M 10.578125 3.941406 C 10.539062 3.941406 10.503906 3.929688 10.472656 3.90625 C 10.433594 3.875 10.414062 3.832031 10.414062 3.785156 C 10.414062 3.75 10.425781 3.714844 10.449219 3.683594 L 10.707031 3.390625 C 10.765625 3.324219 10.867188 3.316406 10.9375 3.371094 C 10.976562 3.402344 10.996094 3.449219 10.996094 3.492188 C 10.996094 3.527344 10.984375 3.5625 10.957031 3.59375 L 10.703125 3.886719 C 10.671875 3.921875 10.625 3.941406 10.578125 3.941406 "/>
<path style=" stroke:none;fill-rule:nonzero;fill:rgb(65.489197%,58.428955%,95.689392%);fill-opacity:1;" d="M 10.8125 3.148438 C 10.777344 3.148438 10.738281 3.136719 10.710938 3.113281 L 10.402344 2.867188 C 10.363281 2.835938 10.34375 2.792969 10.34375 2.746094 C 10.34375 2.710938 10.355469 2.675781 10.382812 2.644531 C 10.441406 2.578125 10.542969 2.570312 10.613281 2.625 L 10.917969 2.871094 C 10.957031 2.902344 10.976562 2.945312 10.976562 2.992188 C 10.976562 3.027344 10.964844 3.0625 10.9375 3.09375 C 10.90625 3.128906 10.859375 3.148438 10.8125 3.148438 "/>
<path style=" stroke:none;fill-rule:nonzero;fill:rgb(65.489197%,58.428955%,95.689392%);fill-opacity:1;" d="M 11.703125 3.808594 C 11.664062 3.808594 11.628906 3.796875 11.597656 3.773438 L 11.289062 3.527344 C 11.25 3.496094 11.230469 3.453125 11.230469 3.40625 C 11.230469 3.371094 11.246094 3.335938 11.269531 3.304688 C 11.328125 3.242188 11.429688 3.230469 11.5 3.285156 L 11.804688 3.53125 C 11.84375 3.5625 11.863281 3.609375 11.863281 3.652344 C 11.863281 3.6875 11.851562 3.722656 11.828125 3.753906 C 11.796875 3.789062 11.746094 3.808594 11.703125 3.808594 "/>
<path style=" stroke:none;fill-rule:nonzero;fill:rgb(0%,92.158508%,68.629456%);fill-opacity:1;" d="M 17.992188 10.351562 C 17.984375 10.351562 17.976562 10.351562 17.964844 10.351562 C 17.875 10.335938 17.816406 10.253906 17.828125 10.171875 C 18.808594 4.308594 14.96875 2.6875 14.808594 2.621094 C 14.722656 2.585938 14.683594 2.496094 14.71875 2.414062 C 14.753906 2.335938 14.847656 2.296875 14.933594 2.332031 C 14.976562 2.347656 19.175781 4.105469 18.152344 10.21875 C 18.140625 10.296875 18.070312 10.351562 17.992188 10.351562 "/>
<path style=" stroke:none;fill-rule:nonzero;fill:rgb(0%,92.158508%,68.629456%);fill-opacity:1;" d="M 16.726562 8.695312 C 16.640625 8.695312 16.570312 8.632812 16.5625 8.550781 C 16.273438 5.09375 12.59375 4.285156 12.558594 4.277344 C 12.46875 4.257812 12.414062 4.171875 12.433594 4.089844 C 12.453125 4.003906 12.539062 3.949219 12.628906 3.96875 C 12.667969 3.976562 16.582031 4.839844 16.890625 8.527344 C 16.898438 8.613281 16.828125 8.6875 16.738281 8.695312 C 16.734375 8.695312 16.730469 8.695312 16.726562 8.695312 "/>
<path style=" stroke:none;fill-rule:nonzero;fill:rgb(100%,100%,100%);fill-opacity:1;" d="M 4.554688 21.53125 L 2.191406 21.59375 L 2.339844 23.210938 C 2.339844 23.210938 11.789062 25.515625 11.789062 25.433594 C 11.789062 25.351562 11.894531 24.300781 11.894531 24.300781 L 9.636719 23.714844 C 9.636719 23.714844 8.351562 22.925781 8.308594 22.847656 C 8.265625 22.765625 5.503906 21.492188 5.503906 21.492188 L 4.554688 21.53125 "/>
<path style=" stroke:none;fill-rule:nonzero;fill:rgb(100%,100%,100%);fill-opacity:1;" d="M 5.203125 18.234375 C 5.203125 18.234375 5.699219 18.914062 5.839844 18.984375 C 6.460938 18.457031 6.191406 19.894531 6.558594 19.84375 C 6.921875 19.789062 6.910156 21.109375 6.910156 21.109375 C 6.910156 21.109375 6.949219 21.648438 6.867188 21.671875 C 6.78125 21.699219 4.542969 22.074219 4.585938 21.765625 C 4.628906 21.453125 4.238281 20.273438 4.292969 20.230469 C 4.347656 20.191406 5.203125 18.234375 5.203125 18.234375 "/>
<g clip-path="url(#clip8)" clip-rule="nonzero">
<path style=" stroke:none;fill-rule:nonzero;fill:rgb(0%,92.158508%,68.629456%);fill-opacity:1;" d="M 10.398438 6.648438 C 10.398438 6.648438 10.28125 6.683594 10.0625 6.765625 C 9.839844 6.847656 9.519531 6.976562 9.125 7.167969 C 8.339844 7.550781 7.234375 8.183594 6.167969 9.214844 C 5.632812 9.730469 5.117188 10.347656 4.695312 11.070312 C 4.269531 11.789062 3.933594 12.613281 3.742188 13.5 C 3.546875 14.382812 3.507812 15.328125 3.585938 16.277344 C 3.613281 16.515625 3.640625 16.753906 3.667969 16.992188 C 3.710938 17.230469 3.757812 17.46875 3.800781 17.707031 C 3.910156 18.164062 4.050781 18.652344 4.171875 19.125 L 4.429688 19.804688 C 4.523438 20.027344 4.585938 20.261719 4.707031 20.472656 C 4.933594 20.90625 5.125 21.351562 5.40625 21.746094 C 5.902344 22.570312 6.5625 23.273438 7.253906 23.882812 C 7.945312 24.5 8.738281 24.957031 9.503906 25.332031 C 10.277344 25.707031 11.058594 25.964844 11.792969 26.148438 C 12.523438 26.332031 13.21875 26.417969 13.84375 26.574219 C 14.464844 26.71875 15 26.902344 15.425781 27.097656 C 15.847656 27.292969 16.167969 27.488281 16.371094 27.644531 C 16.578125 27.800781 16.675781 27.894531 16.675781 27.894531 L 16.691406 27.910156 C 16.816406 28.03125 16.816406 28.226562 16.6875 28.347656 C 16.558594 28.46875 16.355469 28.46875 16.230469 28.347656 C 16.226562 28.339844 16.21875 28.335938 16.214844 28.332031 C 16.214844 28.332031 16.136719 28.246094 15.976562 28.105469 C 15.8125 27.960938 15.546875 27.769531 15.175781 27.570312 C 14.796875 27.378906 14.308594 27.179688 13.71875 27.023438 C 13.136719 26.863281 12.429688 26.757812 11.679688 26.550781 C 10.925781 26.355469 10.121094 26.082031 9.320312 25.6875 C 8.527344 25.289062 7.710938 24.808594 6.996094 24.160156 C 6.28125 23.519531 5.601562 22.785156 5.085938 21.929688 C 4.796875 21.523438 4.597656 21.0625 4.367188 20.617188 C 4.246094 20.398438 4.179688 20.152344 4.082031 19.917969 L 3.816406 19.210938 C 3.691406 18.730469 3.5625 18.269531 3.445312 17.773438 C 3.398438 17.527344 3.355469 17.285156 3.308594 17.042969 C 3.28125 16.796875 3.253906 16.550781 3.226562 16.308594 C 3.144531 15.328125 3.1875 14.347656 3.394531 13.429688 C 3.59375 12.507812 3.945312 11.652344 4.390625 10.902344 C 4.832031 10.152344 5.367188 9.511719 5.917969 8.980469 C 7.027344 7.917969 8.164062 7.269531 8.972656 6.878906 C 9.785156 6.488281 10.296875 6.339844 10.296875 6.339844 L 10.300781 6.339844 C 10.386719 6.3125 10.484375 6.363281 10.507812 6.449219 C 10.535156 6.53125 10.484375 6.621094 10.398438 6.648438 "/>
</g>
<path style=" stroke:none;fill-rule:nonzero;fill:rgb(0%,92.158508%,68.629456%);fill-opacity:1;" d="M 10.613281 4.722656 C 10.613281 4.722656 9.152344 5.28125 9.644531 6.773438 C 10.394531 6.550781 10.664062 5.835938 10.613281 4.722656 "/>
<path style=" stroke:none;fill-rule:nonzero;fill:rgb(0%,92.158508%,68.629456%);fill-opacity:1;" d="M 12.527344 5.816406 C 12.527344 5.816406 11.121094 5.144531 10.285156 6.492188 C 10.957031 6.875 11.695312 6.59375 12.527344 5.816406 "/>
<path style=" stroke:none;fill-rule:nonzero;fill:rgb(0%,92.158508%,68.629456%);fill-opacity:1;" d="M 11.679688 7.742188 C 11.679688 7.742188 11.0625 6.355469 9.515625 6.855469 C 9.765625 7.570312 10.515625 7.8125 11.679688 7.742188 "/>
<path style=" stroke:none;fill-rule:nonzero;fill:rgb(0%,92.158508%,68.629456%);fill-opacity:1;" d="M 8.785156 5.496094 C 8.785156 5.496094 7.375 6.160156 7.984375 7.609375 C 8.714844 7.332031 8.925781 6.601562 8.785156 5.496094 "/>
<path style=" stroke:none;fill-rule:nonzero;fill:rgb(0%,92.158508%,68.629456%);fill-opacity:1;" d="M 10.234375 8.15625 C 10.234375 8.15625 9.378906 6.890625 7.945312 7.636719 C 8.320312 8.296875 9.101562 8.417969 10.234375 8.15625 "/>
<path style=" stroke:none;fill-rule:nonzero;fill:rgb(0%,92.158508%,68.629456%);fill-opacity:1;" d="M 6.398438 6.507812 C 6.398438 6.507812 5.253906 7.542969 6.28125 8.757812 C 6.894531 8.285156 6.871094 7.527344 6.398438 6.507812 "/>
<path style=" stroke:none;fill-rule:nonzero;fill:rgb(0%,92.158508%,68.629456%);fill-opacity:1;" d="M 8.707031 8.9375 C 8.707031 8.9375 7.617188 7.855469 6.359375 8.851562 C 6.859375 9.433594 7.652344 9.402344 8.707031 8.9375 "/>
<path style=" stroke:none;fill-rule:nonzero;fill:rgb(0%,92.158508%,68.629456%);fill-opacity:1;" d="M 4.820312 7.90625 C 4.820312 7.90625 3.84375 9.085938 5.039062 10.148438 C 5.574219 9.597656 5.441406 8.851562 4.820312 7.90625 "/>
<path style=" stroke:none;fill-rule:nonzero;fill:rgb(0%,92.158508%,68.629456%);fill-opacity:1;" d="M 7.46875 9.996094 C 7.46875 9.996094 6.226562 9.074219 5.128906 10.230469 C 5.710938 10.738281 6.492188 10.601562 7.46875 9.996094 "/>
<path style=" stroke:none;fill-rule:nonzero;fill:rgb(0%,92.158508%,68.629456%);fill-opacity:1;" d="M 3.628906 9.6875 C 3.628906 9.6875 2.800781 10.964844 4.121094 11.886719 C 4.585938 11.28125 4.359375 10.554688 3.628906 9.6875 "/>
<path style=" stroke:none;fill-rule:nonzero;fill:rgb(0%,92.158508%,68.629456%);fill-opacity:1;" d="M 6.515625 11.464844 C 6.515625 11.464844 5.167969 10.6875 4.21875 11.960938 C 4.859375 12.398438 5.617188 12.175781 6.515625 11.464844 "/>
<path style=" stroke:none;fill-rule:nonzero;fill:rgb(0%,92.158508%,68.629456%);fill-opacity:1;" d="M 2.371094 11.636719 C 2.371094 11.636719 1.929688 13.082031 3.460938 13.632812 C 3.738281 12.925781 3.316406 12.285156 2.371094 11.636719 "/>
<path style=" stroke:none;fill-rule:nonzero;fill:rgb(0%,92.158508%,68.629456%);fill-opacity:1;" d="M 5.644531 12.605469 C 5.644531 12.605469 4.132812 12.203125 3.578125 13.675781 C 4.316406 13.933594 4.980469 13.523438 5.644531 12.605469 "/>
<path style=" stroke:none;fill-rule:nonzero;fill:rgb(0%,92.158508%,68.629456%);fill-opacity:1;" d="M 1.867188 13.835938 C 1.867188 13.835938 1.671875 15.328125 3.273438 15.640625 C 3.429688 14.902344 2.910156 14.332031 1.867188 13.835938 "/>
<path style=" stroke:none;fill-rule:nonzero;fill:rgb(0%,92.158508%,68.629456%);fill-opacity:1;" d="M 5.261719 14.296875 C 5.261719 14.296875 3.703125 14.128906 3.394531 15.664062 C 4.167969 15.808594 4.757812 15.304688 5.261719 14.296875 "/>
<path style=" stroke:none;fill-rule:nonzero;fill:rgb(0%,92.158508%,68.629456%);fill-opacity:1;" d="M 1.675781 15.867188 C 1.675781 15.867188 1.730469 17.371094 3.363281 17.433594 C 3.394531 16.679688 2.785156 16.195312 1.675781 15.867188 "/>
<path style=" stroke:none;fill-rule:nonzero;fill:rgb(0%,92.158508%,68.629456%);fill-opacity:1;" d="M 5.113281 15.742188 C 5.113281 15.742188 3.542969 15.8125 3.5 17.378906 C 4.285156 17.402344 4.78125 16.8125 5.113281 15.742188 "/>
<path style=" stroke:none;fill-rule:nonzero;fill:rgb(0%,92.158508%,68.629456%);fill-opacity:1;" d="M 5.351562 17.257812 C 5.351562 17.257812 3.730469 17.683594 4.0625 19.324219 C 4.886719 19.175781 5.265625 18.449219 5.351562 17.257812 "/>
<path style=" stroke:none;fill-rule:nonzero;fill:rgb(0%,92.158508%,68.629456%);fill-opacity:1;" d="M 3.039062 21.890625 C 3.039062 21.890625 3.921875 23.332031 5.546875 22.566406 C 5.167969 21.816406 4.304688 21.652344 3.039062 21.890625 "/>
<path style=" stroke:none;fill-rule:nonzero;fill:rgb(0%,92.158508%,68.629456%);fill-opacity:1;" d="M 6.351562 20.097656 C 6.351562 20.097656 4.859375 20.960938 5.671875 22.507812 C 6.453125 22.132812 6.617188 21.304688 6.351562 20.097656 "/>
<path style=" stroke:none;fill-rule:nonzero;fill:rgb(0%,92.158508%,68.629456%);fill-opacity:1;" d="M 4.320312 23.632812 C 4.320312 23.632812 5.425781 24.925781 6.910156 23.925781 C 6.410156 23.242188 5.53125 23.207031 4.320312 23.632812 "/>
<path style=" stroke:none;fill-rule:nonzero;fill:rgb(0%,92.158508%,68.629456%);fill-opacity:1;" d="M 7.296875 21.367188 C 7.296875 21.367188 5.964844 22.441406 7.023438 23.851562 C 7.730469 23.363281 7.757812 22.523438 7.296875 21.367188 "/>
<path style=" stroke:none;fill-rule:nonzero;fill:rgb(0%,92.158508%,68.629456%);fill-opacity:1;" d="M 5.699219 25.113281 C 5.699219 25.113281 7 26.226562 8.304688 25.027344 C 7.703125 24.421875 6.832031 24.515625 5.699219 25.113281 "/>
<path style=" stroke:none;fill-rule:nonzero;fill:rgb(0%,92.158508%,68.629456%);fill-opacity:1;" d="M 8.285156 22.4375 C 8.285156 22.4375 7.140625 23.695312 8.40625 24.933594 C 9.03125 24.351562 8.921875 23.515625 8.285156 22.4375 "/>
<path style=" stroke:none;fill-rule:nonzero;fill:rgb(0%,92.158508%,68.629456%);fill-opacity:1;" d="M 7.539062 26.546875 C 7.539062 26.546875 9.066406 27.351562 10.058594 25.902344 C 9.332031 25.441406 8.503906 25.722656 7.539062 26.546875 "/>
<path style=" stroke:none;fill-rule:nonzero;fill:rgb(0%,92.158508%,68.629456%);fill-opacity:1;" d="M 9.433594 23.386719 C 9.433594 23.386719 8.609375 24.855469 10.136719 25.792969 C 10.609375 25.089844 10.308594 24.296875 9.433594 23.386719 "/>
<path style=" stroke:none;fill-rule:nonzero;fill:rgb(0%,92.158508%,68.629456%);fill-opacity:1;" d="M 9.503906 27.53125 C 9.503906 27.53125 11.152344 28.070312 11.863281 26.472656 C 11.0625 26.144531 10.296875 26.558594 9.503906 27.53125 "/>
<path style=" stroke:none;fill-rule:nonzero;fill:rgb(0%,92.158508%,68.629456%);fill-opacity:1;" d="M 10.789062 24.101562 C 10.789062 24.101562 10.246094 25.6875 11.921875 26.351562 C 12.253906 25.578125 11.8125 24.851562 10.789062 24.101562 "/>
<path style=" stroke:none;fill-rule:nonzero;fill:rgb(100%,100%,100%);fill-opacity:1;" d="M 3.296875 20.632812 C 3.296875 20.632812 2.480469 17.625 3.113281 17.496094 C 4.734375 17.175781 5.648438 16.5625 5.648438 16.5625 L 4.660156 20.429688 L 3.296875 20.632812 "/>
<path style=" stroke:none;fill-rule:nonzero;fill:rgb(65.489197%,58.428955%,95.689392%);fill-opacity:1;" d="M 7.105469 10.546875 L 5.355469 16.625 L 4.839844 16.816406 Z M 7.105469 10.546875 "/>
<path style=" stroke:none;fill-rule:nonzero;fill:rgb(100%,100%,100%);fill-opacity:1;" d="M 16.820312 12.957031 C 16.820312 12.957031 18.007812 13.664062 19.496094 13.335938 C 19.671875 13.613281 19.671875 13.613281 19.671875 13.613281 C 19.671875 13.613281 18.132812 14.511719 17.761719 15.519531 C 15.265625 16.054688 15.265625 16.054688 15.265625 16.054688 C 15.265625 16.054688 15.394531 16.792969 14.105469 16.488281 C 6.050781 20.703125 4.960938 20.4375 4.960938 20.4375 L 5.371094 16.644531 C 5.371094 16.644531 12.179688 14.761719 13.394531 14.761719 C 13.492188 14.351562 13.574219 14.140625 14.433594 14.15625 C 16.453125 13.09375 16.820312 12.957031 16.820312 12.957031 "/>
<g clip-path="url(#clip9)" clip-rule="nonzero">
<path style="fill:none;stroke-width:15.745;stroke-linecap:butt;stroke-linejoin:miter;stroke:rgb(19.999695%,72.938538%,75.689697%);stroke-opacity:1;stroke-miterlimit:10;" d="M 851.583127 847.138503 L 827.172814 921.625253 C 827.172814 921.625253 653.484054 887.910197 479.044207 836.357526 C 416.891797 818.127874 215.412835 691.696417 224.801416 653.864988 C 242.45195 624.070288 433.791244 649.35658 540.633303 695.81279 C 673.387847 753.442012 851.583127 847.138503 851.583127 847.138503 Z M 851.583127 847.138503 " transform="matrix(0.0208032,0,0,-0.019928,-3.801588,33.276342)"/>
</g>
<path style=" stroke:none;fill-rule:nonzero;fill:rgb(19.999695%,72.938538%,75.689697%);fill-opacity:1;" d="M 17.449219 14.28125 C 17.460938 14.363281 17.449219 14.453125 17.410156 14.539062 C 17.296875 14.78125 17 14.890625 16.746094 14.78125 C 16.492188 14.671875 16.375 14.386719 16.492188 14.140625 C 16.605469 13.898438 16.902344 13.789062 17.15625 13.898438 C 17.277344 13.953125 17.367188 14.046875 17.414062 14.152344 L 19.433594 13.460938 C 19.433594 13.457031 19.433594 13.457031 19.429688 13.453125 C 17.742188 13.753906 16.828125 13.136719 16.828125 13.136719 L 14.414062 14.359375 L 15.175781 15.964844 C 15.175781 15.964844 15.265625 15.894531 17.628906 15.335938 C 17.953125 14.59375 18.519531 14.175781 19.449219 13.558594 C 19.460938 13.546875 19.464844 13.539062 19.464844 13.53125 L 17.449219 14.28125 "/>
<path style=" stroke:none;fill-rule:nonzero;fill:rgb(100%,100%,100%);fill-opacity:1;" d="M 14.863281 16.664062 C 14.507812 16.789062 14.117188 16.613281 13.988281 16.269531 L 13.464844 14.867188 C 13.335938 14.527344 13.519531 14.152344 13.875 14.03125 C 14.230469 13.90625 14.621094 14.085938 14.75 14.425781 L 15.273438 15.828125 C 15.402344 16.171875 15.21875 16.542969 14.863281 16.664062 "/>
<path style="fill:none;stroke-width:15.745;stroke-linecap:butt;stroke-linejoin:miter;stroke:rgb(19.999695%,72.938538%,75.689697%);stroke-opacity:1;stroke-miterlimit:10;" d="M 894.019516 844.590272 L 892.517343 844.198236 C 878.622242 839.101774 863.41274 846.354432 858.530677 860.271693 L 836.749168 920.645164 C 831.867105 934.366407 839.002427 949.655793 852.897528 954.556237 L 854.399701 955.14429 C 868.294802 960.044734 883.504304 952.988095 888.386367 939.070833 L 910.167876 878.697362 C 915.049939 864.976119 907.914617 849.686734 894.019516 844.590272 Z M 894.019516 844.590272 " transform="matrix(0.0208032,0,0,-0.019928,-3.801588,33.276342)"/>
</g>
</svg>
