<?xml version="1.0" encoding="UTF-8"?>
<svg xmlns="http://www.w3.org/2000/svg" xmlns:xlink="http://www.w3.org/1999/xlink" width="30pt" height="30.000001pt" viewBox="0 0 30 30.000001" version="1.2">
<defs>
<clipPath id="clip1">
  <path d="M 15 4.398438 L 28.625 4.398438 L 28.625 24.628906 L 15 24.628906 Z M 15 4.398438 "/>
</clipPath>
<clipPath id="clip2">
  <path d="M 1.375 4.398438 L 15 4.398438 L 15 24.628906 L 1.375 24.628906 Z M 1.375 4.398438 "/>
</clipPath>
</defs>
<g id="surface1">
<g clip-path="url(#clip1)" clip-rule="nonzero">
<path style=" stroke:none;fill-rule:nonzero;fill:rgb(100%,87.059021%,34.899902%);fill-opacity:1;" d="M 21.847656 24.539062 C 18.050781 24.539062 15.308594 21.425781 15.3125 16.820312 C 15.332031 10.125 20.402344 5.390625 27.71875 4.480469 C 28.398438 4.398438 28.65625 5.332031 28.035156 5.605469 C 25.226562 6.847656 23.808594 8.417969 23.625 9.972656 C 23.488281 11.136719 24.125 12.15625 24.925781 12.34375 C 26.996094 12.839844 28.382812 15.398438 28.382812 18.046875 C 28.382812 21.632812 25.457031 24.539062 21.847656 24.539062 Z M 21.847656 24.539062 "/>
</g>
<g clip-path="url(#clip2)" clip-rule="nonzero">
<path style=" stroke:none;fill-rule:nonzero;fill:rgb(100%,87.059021%,34.899902%);fill-opacity:1;" d="M 7.582031 24.539062 C 3.785156 24.539062 1.042969 21.425781 1.042969 16.820312 C 1.066406 10.125 6.136719 5.390625 13.453125 4.480469 C 14.132812 4.398438 14.390625 5.332031 13.769531 5.605469 C 10.960938 6.847656 9.542969 8.417969 9.359375 9.972656 C 9.222656 11.136719 9.859375 12.15625 10.660156 12.34375 C 12.730469 12.839844 14.117188 15.398438 14.117188 18.046875 C 14.117188 21.632812 11.191406 24.539062 7.582031 24.539062 Z M 7.582031 24.539062 "/>
</g>
</g>
</svg>
