<?xml version="1.0" encoding="UTF-8"?>
<svg xmlns="http://www.w3.org/2000/svg" xmlns:xlink="http://www.w3.org/1999/xlink" width="30pt" height="30.000001pt" viewBox="0 0 30 30.000001" version="1.2">
<defs>
<clipPath id="clip1">
  <path d="M 24.835938 15.703125 L 29.03125 15.703125 L 29.03125 20.328125 L 24.835938 20.328125 Z M 24.835938 15.703125 "/>
</clipPath>
<clipPath id="clip2">
  <path d="M 18 2.503906 L 19 2.503906 L 19 5 L 18 5 Z M 18 2.503906 "/>
</clipPath>
<clipPath id="clip3">
  <path d="M 14.246094 23.914062 L 16.929688 23.914062 L 16.929688 26.457031 L 14.246094 26.457031 Z M 14.246094 23.914062 "/>
</clipPath>
<clipPath id="clip4">
  <path d="M 0.964844 13 L 7 13 L 7 19 L 0.964844 19 Z M 0.964844 13 "/>
</clipPath>
</defs>
<g id="surface1">
<path style=" stroke:none;fill-rule:nonzero;fill:rgb(78.819275%,68.238831%,63.919067%);fill-opacity:1;" d="M 3.949219 19.289062 C 3.898438 19.359375 3.855469 19.4375 3.824219 19.53125 C 3.71875 19.882812 3.8125 20.339844 4.238281 20.5625 C 4.273438 20.582031 4.308594 20.597656 4.347656 20.613281 C 4.695312 20.742188 5.117188 20.765625 5.488281 20.699219 C 5.519531 20.742188 5.550781 20.785156 5.59375 20.820312 C 5.6875 20.902344 5.808594 20.980469 5.941406 21.050781 C 6.246094 21.210938 6.628906 21.316406 7.03125 21.269531 C 7.507812 21.207031 7.925781 20.945312 8.269531 20.484375 L 8.105469 20.351562 C 7.796875 20.765625 7.429688 21 7.007812 21.054688 C 6.652344 21.097656 6.304688 21 6.035156 20.859375 C 5.914062 20.796875 5.808594 20.722656 5.722656 20.652344 C 5.71875 20.652344 5.71875 20.648438 5.71875 20.648438 C 5.945312 20.582031 6.140625 20.480469 6.265625 20.347656 C 6.429688 20.179688 6.476562 19.96875 6.398438 19.753906 C 6.3125 19.507812 6.152344 19.472656 6.066406 19.472656 C 5.804688 19.476562 5.542969 19.796875 5.445312 20.101562 C 5.398438 20.246094 5.386719 20.378906 5.410156 20.5 C 5.082031 20.546875 4.714844 20.523438 4.417969 20.410156 C 4.390625 20.398438 4.363281 20.386719 4.335938 20.371094 C 4.011719 20.203125 3.941406 19.859375 4.019531 19.597656 C 4.035156 19.550781 4.054688 19.511719 4.078125 19.46875 C 4.152344 19.550781 4.238281 19.628906 4.351562 19.691406 C 4.378906 19.707031 4.40625 19.722656 4.433594 19.734375 C 4.753906 19.902344 4.976562 19.941406 5.101562 19.84375 C 5.171875 19.792969 5.199219 19.703125 5.183594 19.601562 C 5.152344 19.445312 4.996094 19.246094 4.761719 19.121094 C 4.703125 19.089844 4.636719 19.0625 4.566406 19.042969 C 4.398438 19 4.242188 19.039062 4.109375 19.128906 C 3.8125 18.476562 4.316406 17.449219 4.324219 17.433594 L 4.144531 17.335938 C 4.113281 17.394531 3.542969 18.546875 3.949219 19.289062 Z M 5.640625 20.171875 C 5.726562 19.898438 5.941406 19.691406 6.070312 19.691406 C 6.089844 19.6875 6.15625 19.6875 6.207031 19.828125 C 6.253906 19.964844 6.226562 20.085938 6.121094 20.199219 C 6.007812 20.316406 5.828125 20.402344 5.617188 20.457031 C 5.597656 20.351562 5.613281 20.242188 5.640625 20.171875 Z M 4.527344 19.542969 C 4.503906 19.53125 4.476562 19.515625 4.449219 19.503906 C 4.355469 19.449219 4.28125 19.378906 4.21875 19.304688 C 4.300781 19.25 4.398438 19.21875 4.511719 19.253906 C 4.570312 19.269531 4.621094 19.289062 4.671875 19.316406 C 4.820312 19.390625 4.925781 19.507812 4.96875 19.601562 C 4.984375 19.644531 4.984375 19.667969 4.980469 19.671875 C 4.980469 19.671875 4.886719 19.734375 4.527344 19.542969 "/>
<path style=" stroke:none;fill-rule:nonzero;fill:rgb(98.039246%,80.389404%,23.529053%);fill-opacity:1;" d="M 27.546875 19.921875 L 27.386719 19.988281 C 27.394531 20.003906 27.972656 21.605469 27.527344 22.1875 C 27.515625 22.203125 27.503906 22.214844 27.492188 22.230469 C 27.371094 22.351562 27.199219 22.398438 26.972656 22.382812 C 26.953125 21.742188 26.773438 21.105469 26.53125 20.980469 C 26.386719 20.902344 26.210938 20.9375 26.058594 21.066406 C 25.878906 21.21875 25.726562 21.53125 25.8125 21.851562 C 25.867188 22.058594 26.070312 22.414062 26.800781 22.542969 C 26.796875 22.820312 26.761719 23.09375 26.667969 23.3125 C 26.621094 23.417969 26.570312 23.503906 26.507812 23.566406 C 26.328125 23.753906 26.074219 23.785156 25.75 23.652344 C 25.492188 23.550781 25.273438 23.414062 25.085938 23.261719 C 25.410156 22.804688 25.402344 22.082031 25.1875 21.601562 C 25.050781 21.296875 24.84375 21.128906 24.617188 21.136719 C 24.335938 21.152344 24.144531 21.335938 24.097656 21.644531 C 24.03125 22.078125 24.269531 22.753906 24.835938 23.28125 C 24.5625 23.535156 24.132812 23.5625 23.59375 23.351562 C 21.503906 22.542969 21.960938 20.855469 21.980469 20.785156 L 21.816406 20.734375 C 21.808594 20.753906 21.289062 22.652344 23.53125 23.523438 C 24.300781 23.820312 24.734375 23.632812 24.972656 23.398438 C 25.175781 23.5625 25.410156 23.710938 25.6875 23.820312 C 26.078125 23.976562 26.402344 23.933594 26.628906 23.699219 C 26.707031 23.617188 26.769531 23.511719 26.824219 23.386719 C 26.921875 23.15625 26.964844 22.863281 26.96875 22.5625 C 27.242188 22.578125 27.460938 22.515625 27.613281 22.355469 C 27.628906 22.339844 27.644531 22.320312 27.660156 22.300781 C 28.167969 21.640625 27.574219 19.992188 27.546875 19.921875 Z M 24.953125 23.144531 C 24.433594 22.664062 24.210938 22.050781 24.269531 21.675781 C 24.292969 21.519531 24.375 21.332031 24.625 21.320312 C 24.777344 21.3125 24.925781 21.441406 25.03125 21.679688 C 25.21875 22.09375 25.230469 22.746094 24.953125 23.144531 Z M 26.800781 22.359375 C 26.34375 22.273438 26.050781 22.078125 25.976562 21.804688 C 25.914062 21.558594 26.03125 21.320312 26.167969 21.203125 C 26.214844 21.164062 26.335938 21.078125 26.453125 21.140625 C 26.609375 21.222656 26.777344 21.777344 26.800781 22.359375 "/>
<g clip-path="url(#clip1)" clip-rule="nonzero">
<path style=" stroke:none;fill-rule:nonzero;fill:rgb(95.289612%,73.329163%,14.118958%);fill-opacity:1;" d="M 27.265625 15.734375 C 27.265625 15.734375 28.757812 15.988281 29.003906 17.679688 C 29.300781 19.707031 27.140625 21.609375 24.878906 19.085938 C 24.878906 19.085938 26.585938 19.679688 27.542969 18.628906 C 28.5 17.582031 27.265625 15.734375 27.265625 15.734375 "/>
</g>
<path style=" stroke:none;fill-rule:nonzero;fill:rgb(98.429871%,91.758728%,13.729858%);fill-opacity:1;" d="M 27.753906 19.105469 C 28.558594 18.632812 28.429688 17.410156 28.179688 16.519531 C 28.355469 16.539062 28.503906 16.695312 28.640625 16.8125 C 28.128906 16.066406 27.414062 15.867188 27.414062 15.867188 C 27.414062 15.867188 28.621094 17.675781 27.6875 18.699219 C 27.222656 19.207031 26.582031 19.320312 26.050781 19.308594 C 26.605469 19.527344 27.261719 19.402344 27.753906 19.105469 "/>
<path style=" stroke:none;fill-rule:nonzero;fill:rgb(96.469116%,66.668701%,39.219666%);fill-opacity:1;" d="M 18.636719 7.71875 C 18.636719 7.71875 18.550781 7.539062 18.304688 7.460938 C 18.054688 7.382812 16.910156 7.421875 16.886719 6.566406 C 16.867188 5.714844 17.757812 4.492188 18.859375 4.695312 C 19.960938 4.894531 20.101562 5.992188 19.8125 6.351562 C 19.523438 6.710938 19.488281 7.191406 19.578125 7.277344 C 19.671875 7.363281 18.695312 7.71875 18.636719 7.71875 "/>
<path style=" stroke:none;fill-rule:nonzero;fill:rgb(96.078491%,81.17981%,52.938843%);fill-opacity:1;" d="M 18.730469 4.890625 C 18.582031 4.84375 18.4375 4.828125 18.304688 4.828125 C 18.355469 5.03125 18.304688 5.210938 18.1875 5.394531 C 18.570312 5.148438 19.527344 5.570312 19.292969 6.097656 C 19.457031 5.996094 19.625 5.847656 19.75 5.675781 C 19.589844 5.367188 19.265625 5.046875 18.730469 4.890625 "/>
<path style=" stroke:none;fill-rule:nonzero;fill:rgb(96.078491%,92.158508%,45.489502%);fill-opacity:1;" d="M 18.957031 7.402344 C 18.957031 7.402344 18.660156 6.542969 18.546875 6.402344 C 18.429688 6.261719 18.691406 6.234375 18.691406 6.234375 L 19.214844 7.351562 L 18.957031 7.402344 "/>
<path style=" stroke:none;fill-rule:nonzero;fill:rgb(78.819275%,68.238831%,63.919067%);fill-opacity:1;" d="M 19.671875 9.605469 C 19.945312 9.375 20.125 8.898438 19.796875 8.246094 C 19.746094 8.140625 19.683594 8.042969 19.613281 7.953125 C 19.519531 7.835938 19.417969 7.734375 19.308594 7.648438 L 19.273438 7.804688 C 19.351562 7.871094 19.429688 7.949219 19.5 8.039062 C 19.5625 8.121094 19.621094 8.214844 19.671875 8.316406 C 19.957031 8.875 19.816406 9.277344 19.597656 9.476562 C 19.585938 9.460938 19.574219 9.4375 19.5625 9.417969 C 19.40625 9.21875 19.203125 9.128906 19.042969 9.132812 C 18.921875 9.132812 18.828125 9.1875 18.789062 9.273438 C 18.769531 9.324219 18.75 9.433594 18.867188 9.585938 C 18.875 9.59375 18.878906 9.601562 18.886719 9.609375 C 19.042969 9.796875 19.316406 9.820312 19.554688 9.6875 C 19.683594 9.980469 19.492188 10.253906 19.269531 10.417969 C 19.226562 10.449219 19.179688 10.476562 19.132812 10.5 C 19.066406 10.300781 18.996094 10.164062 18.925781 10.070312 C 18.8125 9.929688 18.707031 9.894531 18.636719 9.890625 C 18.511719 9.882812 18.402344 9.960938 18.34375 10.089844 C 18.277344 10.246094 18.304688 10.425781 18.410156 10.5625 C 18.421875 10.574219 18.429688 10.585938 18.441406 10.597656 C 18.589844 10.753906 18.816406 10.765625 19.039062 10.695312 C 19.089844 10.929688 19.066406 11.128906 18.96875 11.289062 C 18.742188 11.644531 18.203125 11.699219 18.199219 11.703125 L 18.210938 11.847656 C 18.234375 11.847656 18.824219 11.785156 19.085938 11.367188 C 19.210938 11.171875 19.234375 10.925781 19.167969 10.644531 C 19.234375 10.613281 19.292969 10.578125 19.351562 10.539062 C 19.691406 10.292969 19.820312 9.929688 19.683594 9.621094 C 19.679688 9.613281 19.675781 9.609375 19.671875 9.605469 Z M 18.992188 9.511719 C 18.988281 9.503906 18.980469 9.5 18.976562 9.492188 C 18.925781 9.425781 18.90625 9.367188 18.917969 9.332031 C 18.933594 9.300781 18.980469 9.28125 19.042969 9.28125 C 19.167969 9.277344 19.328125 9.351562 19.449219 9.511719 C 19.460938 9.523438 19.46875 9.542969 19.480469 9.554688 C 19.296875 9.652344 19.105469 9.640625 18.992188 9.511719 Z M 18.542969 10.492188 C 18.535156 10.484375 18.527344 10.476562 18.519531 10.46875 C 18.433594 10.355469 18.441406 10.230469 18.472656 10.152344 C 18.5 10.09375 18.554688 10.035156 18.628906 10.039062 C 18.65625 10.039062 18.730469 10.054688 18.816406 10.164062 C 18.875 10.242188 18.941406 10.363281 19 10.554688 C 18.828125 10.609375 18.648438 10.605469 18.542969 10.492188 "/>
<path style=" stroke:none;fill-rule:nonzero;fill:rgb(55.688477%,46.269226%,40.779114%);fill-opacity:1;" d="M 19.964844 7.316406 C 19.785156 7.089844 18.535156 7.332031 18.445312 7.816406 C 18.355469 8.296875 19.277344 7.941406 19.65625 7.761719 C 20.035156 7.582031 20.066406 7.449219 19.964844 7.316406 "/>
<path style=" stroke:none;fill-rule:nonzero;fill:rgb(96.078491%,92.158508%,45.489502%);fill-opacity:1;" d="M 18.710938 5.835938 C 18.863281 5.949219 18.902344 6.167969 18.796875 6.328125 C 18.691406 6.492188 18.480469 6.535156 18.328125 6.421875 C 18.171875 6.3125 18.132812 6.09375 18.238281 5.929688 C 18.34375 5.769531 18.554688 5.726562 18.710938 5.835938 "/>
<path style=" stroke:none;fill-rule:nonzero;fill:rgb(96.469116%,66.668701%,39.219666%);fill-opacity:1;" d="M 16.234375 9.167969 C 16.207031 9.144531 16.386719 8.816406 16.636719 8.425781 C 16.886719 8.039062 17.113281 7.738281 17.140625 7.757812 C 17.171875 7.777344 16.988281 8.109375 16.738281 8.5 C 16.488281 8.886719 16.261719 9.1875 16.234375 9.167969 "/>
<path style=" stroke:none;fill-rule:nonzero;fill:rgb(96.469116%,66.668701%,39.219666%);fill-opacity:1;" d="M 16.34375 6.351562 C 16.34375 6.386719 15.9375 6.433594 15.4375 6.457031 C 14.9375 6.484375 14.527344 6.472656 14.527344 6.4375 C 14.523438 6.402344 14.929688 6.355469 15.433594 6.328125 C 15.933594 6.304688 16.339844 6.316406 16.34375 6.351562 "/>
<path style=" stroke:none;fill-rule:nonzero;fill:rgb(96.469116%,66.668701%,39.219666%);fill-opacity:1;" d="M 16.785156 4.785156 C 16.765625 4.8125 16.53125 4.683594 16.257812 4.496094 C 15.984375 4.308594 15.777344 4.128906 15.796875 4.101562 C 15.816406 4.070312 16.054688 4.199219 16.324219 4.386719 C 16.597656 4.578125 16.804688 4.753906 16.785156 4.785156 "/>
<g clip-path="url(#clip2)" clip-rule="nonzero">
<path style=" stroke:none;fill-rule:nonzero;fill:rgb(96.469116%,66.668701%,39.219666%);fill-opacity:1;" d="M 18.417969 2.503906 C 18.453125 2.5 18.503906 2.847656 18.527344 3.277344 C 18.554688 3.707031 18.550781 4.054688 18.515625 4.058594 C 18.480469 4.058594 18.433594 3.714844 18.40625 3.285156 C 18.378906 2.855469 18.386719 2.507812 18.417969 2.503906 "/>
</g>
<path style=" stroke:none;fill-rule:nonzero;fill:rgb(96.469116%,66.668701%,39.219666%);fill-opacity:1;" d="M 21.386719 4.433594 C 21.398438 4.464844 21.101562 4.636719 20.71875 4.8125 C 20.335938 4.988281 20.015625 5.105469 20 5.074219 C 19.988281 5.039062 20.285156 4.871094 20.667969 4.695312 C 21.050781 4.519531 21.371094 4.402344 21.386719 4.433594 "/>
<path style=" stroke:none;fill-rule:nonzero;fill:rgb(96.469116%,66.668701%,39.219666%);fill-opacity:1;" d="M 21.917969 6.871094 C 21.902344 6.902344 21.554688 6.777344 21.136719 6.585938 C 20.722656 6.398438 20.394531 6.214844 20.410156 6.183594 C 20.421875 6.152344 20.773438 6.277344 21.1875 6.46875 C 21.605469 6.65625 21.929688 6.835938 21.917969 6.871094 "/>
<path style=" stroke:none;fill-rule:nonzero;fill:rgb(79.60968%,20.779419%,24.308777%);fill-opacity:1;" d="M 21.257812 11.953125 C 18.242188 11.871094 15.898438 13.027344 15.828125 13.0625 C 15.753906 13.023438 13.464844 11.742188 10.449219 11.660156 C 7.382812 11.574219 6.003906 12.191406 5.980469 13.148438 C 5.960938 14.101562 7.71875 24.820312 8.1875 25.113281 C 8.652344 25.402344 11.6875 23.363281 14.601562 24.855469 C 14.601562 24.855469 14.722656 25.414062 15.554688 25.382812 C 16.390625 25.460938 16.601562 24.910156 16.601562 24.910156 C 19.582031 23.578125 22.710938 25.414062 23.191406 25.152344 C 23.671875 24.886719 25.636719 14.636719 25.65625 13.683594 C 25.675781 12.726562 24.324219 12.035156 21.257812 11.953125 "/>
<path style=" stroke:none;fill-rule:nonzero;fill:rgb(68.629456%,15.289307%,18.429565%);fill-opacity:1;" d="M 21.050781 12.203125 C 18.148438 12.121094 15.890625 13.234375 15.820312 13.269531 C 15.753906 13.230469 13.550781 11.996094 10.644531 11.917969 C 7.691406 11.835938 6.363281 12.429688 6.34375 13.351562 C 6.324219 14.269531 8.015625 24.589844 8.46875 24.867188 C 8.917969 25.148438 11.835938 23.183594 14.644531 24.621094 C 14.644531 24.621094 14.757812 25.160156 15.5625 25.128906 C 16.363281 25.203125 16.570312 24.675781 16.570312 24.675781 C 19.4375 23.390625 22.449219 25.160156 22.914062 24.90625 C 23.375 24.652344 25.265625 14.785156 25.285156 13.867188 C 25.304688 12.945312 24.003906 12.28125 21.050781 12.203125 "/>
<path style=" stroke:none;fill-rule:nonzero;fill:rgb(72.158813%,73.728943%,76.469421%);fill-opacity:1;" d="M 21.058594 11.128906 C 18.191406 11.050781 15.960938 12.246094 15.894531 12.28125 C 15.824219 12.242188 13.652344 10.925781 10.785156 10.847656 C 7.871094 10.769531 6.558594 11.40625 6.535156 12.390625 C 6.515625 13.378906 8.207031 24.0625 8.648438 24.359375 C 9.09375 24.65625 12.332031 23.050781 15.101562 24.582031 C 15.101562 24.582031 14.820312 25.023438 15.613281 24.988281 C 16.40625 25.066406 16.144531 24.613281 16.144531 24.613281 C 18.976562 23.230469 22.121094 24.957031 22.578125 24.683594 C 23.035156 24.410156 25.210938 13.886719 25.234375 12.902344 C 25.253906 11.917969 23.972656 11.207031 21.058594 11.128906 "/>
<path style=" stroke:none;fill-rule:nonzero;fill:rgb(58.039856%,60.389709%,63.139343%);fill-opacity:1;" d="M 20.820312 11.433594 C 18.082031 11.359375 15.953125 12.5 15.886719 12.539062 C 15.820312 12.496094 13.746094 11.242188 11.007812 11.164062 C 8.222656 11.089844 6.96875 11.699219 6.949219 12.640625 C 6.925781 13.582031 8.542969 23.792969 8.964844 24.078125 C 9.390625 24.359375 12.484375 22.824219 15.132812 24.289062 C 15.132812 24.289062 14.863281 24.710938 15.621094 24.675781 C 16.378906 24.75 16.128906 24.316406 16.128906 24.316406 C 18.835938 22.996094 21.839844 24.648438 22.273438 24.386719 C 22.710938 24.125 24.789062 14.070312 24.8125 13.128906 C 24.832031 12.1875 23.605469 11.507812 20.820312 11.433594 "/>
<path style=" stroke:none;fill-rule:nonzero;fill:rgb(89.408875%,90.19928%,91.369629%);fill-opacity:1;" d="M 20.683594 10.378906 C 18.035156 10.308594 15.972656 11.574219 15.90625 11.613281 C 15.84375 11.570312 13.839844 10.195312 11.191406 10.121094 C 8.5 10.046875 7.285156 10.726562 7.261719 11.761719 C 7.238281 12.800781 8.789062 23.570312 9.199219 23.882812 C 9.609375 24.195312 12.585938 22.957031 15.140625 24.5625 C 15.140625 24.5625 14.878906 25.027344 15.613281 24.984375 C 16.34375 25.066406 16.105469 24.589844 16.105469 24.589844 C 18.726562 23.125 21.648438 24.523438 22.070312 24.234375 C 22.492188 23.945312 24.515625 13.269531 24.535156 12.234375 C 24.558594 11.195312 23.375 10.453125 20.683594 10.378906 "/>
<path style=" stroke:none;fill-rule:nonzero;fill:rgb(100%,100%,100%);fill-opacity:1;" d="M 20.644531 10.5625 C 20.445312 10.554688 20.246094 10.558594 20.054688 10.566406 C 21.5 10.917969 23.621094 10.730469 23.792969 12.5 C 23.996094 14.511719 23.011719 17.835938 22.949219 19.816406 C 23.585938 16.757812 24.277344 12.898438 24.289062 12.3125 C 24.3125 11.332031 23.191406 10.628906 20.644531 10.5625 "/>
<path style=" stroke:none;fill-rule:nonzero;fill:rgb(100%,100%,100%);fill-opacity:1;" d="M 8.125 11.984375 C 8.320312 10.632812 10.253906 10.578125 11.4375 10.320312 C 11.351562 10.3125 11.265625 10.308594 11.179688 10.308594 C 8.644531 10.238281 7.5 10.875 7.480469 11.851562 C 7.464844 12.515625 8.136719 17.425781 8.6875 20.585938 C 8.609375 17.957031 7.761719 14.636719 8.125 11.984375 "/>
<path style=" stroke:none;fill-rule:nonzero;fill:rgb(79.998779%,80.778503%,83.139038%);fill-opacity:1;" d="M 23.605469 14.261719 C 23.351562 14.585938 23.453125 15.015625 23.503906 15.390625 C 23.144531 14.691406 22.324219 15.015625 21.757812 15.175781 C 20.113281 15.660156 18.675781 17.054688 16.929688 16.894531 C 16.980469 16.789062 16.878906 16.625 16.878906 16.574219 C 16.519531 16.195312 15.902344 16.144531 15.4375 16.195312 C 14.617188 16.304688 13.949219 15.550781 13.433594 14.855469 C 12.453125 13.5 11.804688 11.835938 11.824219 10.164062 C 11.617188 10.144531 11.40625 10.128906 11.191406 10.121094 C 10.972656 10.117188 10.765625 10.117188 10.570312 10.117188 C 10.269531 11.878906 11.148438 13.683594 11.792969 15.335938 C 12.214844 16.464844 13.277344 17.054688 14.359375 17.394531 C 14.40625 18.039062 14.824219 18.550781 15.285156 18.9375 C 15.691406 19.265625 16.296875 19.054688 16.648438 18.597656 C 18.203125 19.128906 19.59375 17.488281 20.9375 16.789062 C 21.867188 16.320312 22.824219 16.585938 23.769531 16.871094 C 23.910156 16.140625 24.039062 15.4375 24.148438 14.808594 C 23.992188 14.597656 23.800781 14.429688 23.605469 14.261719 "/>
<path style=" stroke:none;fill-rule:nonzero;fill:rgb(79.998779%,80.778503%,83.139038%);fill-opacity:1;" d="M 17.53125 23.589844 C 16.921875 23.667969 16.167969 23.773438 15.925781 23.109375 C 15.71875 22.53125 15.8125 21.550781 15.679688 20.933594 C 15.4375 21.910156 15.8125 23.351562 14.8125 23.695312 C 14.257812 23.882812 13.296875 23.460938 12.714844 23.324219 C 11.578125 23.089844 10.851562 23.339844 9.71875 23.023438 C 9.234375 22.902344 8.984375 22.425781 8.714844 21.972656 C 8.917969 23.058594 9.097656 23.804688 9.199219 23.882812 C 9.609375 24.195312 12.566406 22.957031 15.121094 24.5625 C 15.121094 24.5625 14.878906 25.027344 15.613281 24.984375 C 16.34375 25.066406 16.125 24.59375 16.125 24.59375 C 18.746094 23.132812 21.648438 24.523438 22.070312 24.234375 C 22.164062 24.171875 22.332031 23.609375 22.539062 22.761719 C 22.457031 22.945312 22.359375 23.121094 22.242188 23.28125 C 21.597656 24.167969 20.40625 23.234375 17.53125 23.589844 "/>
<path style=" stroke:none;fill-rule:nonzero;fill:rgb(61.569214%,63.529968%,66.268921%);fill-opacity:1;" d="M 15.800781 18.140625 C 15.878906 14.722656 15.917969 11.949219 15.894531 11.949219 C 15.871094 11.949219 15.792969 14.71875 15.714844 18.140625 C 15.640625 21.558594 15.601562 24.332031 15.625 24.332031 C 15.648438 24.332031 15.726562 21.5625 15.800781 18.140625 "/>
<g clip-path="url(#clip3)" clip-rule="nonzero">
<path style=" stroke:none;fill-rule:nonzero;fill:rgb(95.289612%,73.329163%,14.118958%);fill-opacity:1;" d="M 16.378906 25.808594 C 16.40625 25.742188 16.832031 25.53125 16.914062 25.34375 C 16.996094 25.152344 16.257812 25 16.140625 24.945312 C 16.019531 24.890625 16.023438 23.949219 15.746094 23.933594 C 15.519531 23.917969 15.398438 24.691406 15.230469 24.78125 C 15.0625 24.871094 14.363281 24.921875 14.289062 25.101562 C 14.210938 25.28125 14.738281 25.652344 14.769531 25.78125 C 14.800781 25.910156 14.417969 26.472656 14.578125 26.683594 C 14.738281 26.894531 15.410156 26.21875 15.621094 26.207031 C 15.832031 26.191406 16.199219 26.839844 16.394531 26.785156 C 16.59375 26.726562 16.351562 25.875 16.378906 25.808594 "/>
</g>
<path style=" stroke:none;fill-rule:nonzero;fill:rgb(95.289612%,73.329163%,14.118958%);fill-opacity:1;" d="M 20.046875 24.75 C 20.066406 24.710938 20.332031 24.609375 20.390625 24.496094 C 20.445312 24.386719 20.007812 24.257812 19.941406 24.21875 C 19.871094 24.179688 19.917969 23.613281 19.75 23.589844 C 19.613281 23.570312 19.507812 24.03125 19.402344 24.074219 C 19.296875 24.121094 18.875 24.117188 18.820312 24.222656 C 18.765625 24.328125 19.066406 24.574219 19.078125 24.65625 C 19.089844 24.734375 18.835938 25.050781 18.921875 25.1875 C 19.007812 25.320312 19.445312 24.949219 19.570312 24.953125 C 19.699219 24.953125 19.890625 25.363281 20.011719 25.335938 C 20.132812 25.316406 20.023438 24.789062 20.046875 24.75 "/>
<path style=" stroke:none;fill-rule:nonzero;fill:rgb(95.289612%,73.329163%,14.118958%);fill-opacity:1;" d="M 13.089844 24.578125 C 13.09375 24.523438 13.347656 24.277344 13.363281 24.128906 C 13.378906 23.976562 12.828125 24.046875 12.734375 24.035156 C 12.644531 24.023438 12.441406 23.367188 12.246094 23.421875 C 12.085938 23.464844 12.167969 24.03125 12.070312 24.132812 C 11.972656 24.238281 11.496094 24.433594 11.480469 24.578125 C 11.46875 24.722656 11.914062 24.855469 11.964844 24.9375 C 12.011719 25.019531 11.867188 25.5 12.023438 25.609375 C 12.179688 25.71875 12.503906 25.089844 12.648438 25.03125 C 12.792969 24.972656 13.183594 25.335938 13.308594 25.25 C 13.4375 25.167969 13.082031 24.628906 13.089844 24.578125 "/>
<path style=" stroke:none;fill-rule:nonzero;fill:rgb(13.328552%,45.878601%,60.389709%);fill-opacity:1;" d="M 10.894531 9.71875 C 10.894531 9.71875 10.085938 15.378906 15.496094 17.4375 L 15.953125 17.070312 C 15.953125 17.070312 11.300781 15.535156 11.554688 9.984375 L 10.894531 9.71875 "/>
<path style=" stroke:none;fill-rule:nonzero;fill:rgb(56.079102%,79.998779%,85.099792%);fill-opacity:1;" d="M 11.460938 10.382812 C 11 12.757812 12.148438 14.921875 14.097656 16.347656 C 14.421875 16.582031 14.769531 16.726562 15.128906 16.804688 C 13.863281 16.125 11.414062 14.300781 11.460938 10.382812 "/>
<path style=" stroke:none;fill-rule:nonzero;fill:rgb(13.328552%,45.878601%,60.389709%);fill-opacity:1;" d="M 9.625 10.28125 L 10.964844 6.957031 L 12.878906 9.992188 Z M 9.625 10.28125 "/>
<path style=" stroke:none;fill-rule:nonzero;fill:rgb(56.079102%,79.998779%,85.099792%);fill-opacity:1;" d="M 11.070312 7.550781 C 11.476562 8.21875 12.058594 9.121094 12.578125 9.6875 L 11.007812 7.191406 L 9.921875 9.890625 C 10.476562 9.351562 10.675781 8.234375 11.070312 7.550781 "/>
<path style=" stroke:none;fill-rule:nonzero;fill:rgb(13.328552%,45.878601%,60.389709%);fill-opacity:1;" d="M 16.207031 17.863281 C 16.207031 17.863281 17.21875 18.445312 18.53125 17.757812 C 19.847656 17.070312 22.074219 15.484375 24.09375 16.117188 C 24.09375 16.117188 24.296875 15.484375 24.144531 15.484375 C 23.996094 15.484375 22.273438 15.273438 20.453125 16.066406 C 18.632812 16.859375 17.671875 17.703125 16.15625 17.386719 L 16.207031 17.863281 "/>
<path style=" stroke:none;fill-rule:nonzero;fill:rgb(56.079102%,79.998779%,85.099792%);fill-opacity:1;" d="M 18.53125 17.296875 C 20.160156 16.402344 21.863281 15.621094 23.699219 15.53125 C 23.046875 15.511719 21.777344 15.558594 20.453125 16.136719 C 18.710938 16.894531 17.757812 17.699219 16.351562 17.492188 C 17.042969 17.789062 17.84375 17.660156 18.53125 17.296875 "/>
<path style=" stroke:none;fill-rule:nonzero;fill:rgb(13.328552%,45.878601%,60.389709%);fill-opacity:1;" d="M 23.507812 14.226562 L 26.996094 15.148438 L 24.296875 17.683594 Z M 23.507812 14.226562 "/>
<path style=" stroke:none;fill-rule:nonzero;fill:rgb(56.079102%,79.998779%,85.099792%);fill-opacity:1;" d="M 24.105469 14.480469 C 24.867188 14.886719 25.683594 15.117188 26.535156 15.277344 C 25.984375 15.835938 25.089844 16.769531 24.46875 17.480469 L 26.875 15.214844 L 24.105469 14.480469 "/>
<path style=" stroke:none;fill-rule:nonzero;fill:rgb(71.369934%,47.44873%,74.508667%);fill-opacity:1;" d="M 16.859375 17.332031 C 16.859375 17.914062 16.410156 18.386719 15.851562 18.386719 C 15.296875 18.386719 14.84375 17.914062 14.84375 17.332031 C 14.84375 16.75 15.296875 16.28125 15.851562 16.28125 C 16.410156 16.28125 16.859375 16.75 16.859375 17.332031 "/>
<path style=" stroke:none;fill-rule:nonzero;fill:rgb(57.649231%,35.289001%,64.709473%);fill-opacity:1;" d="M 16.589844 17.332031 C 16.589844 17.761719 16.257812 18.105469 15.851562 18.105469 C 15.445312 18.105469 15.113281 17.761719 15.113281 17.332031 C 15.113281 16.90625 15.445312 16.5625 15.851562 16.5625 C 16.257812 16.5625 16.589844 16.90625 16.589844 17.332031 "/>
<path style=" stroke:none;fill-rule:nonzero;fill:rgb(84.709167%,68.238831%,80.389404%);fill-opacity:1;" d="M 16.378906 17.398438 C 16.382812 17.363281 16.386719 17.332031 16.386719 17.296875 C 16.386719 17 16.15625 16.753906 15.867188 16.753906 C 15.613281 16.753906 15.402344 16.945312 15.359375 17.199219 C 15.695312 17.046875 16.132812 17.113281 16.378906 17.398438 "/>
<g clip-path="url(#clip4)" clip-rule="nonzero">
<path style=" stroke:none;fill-rule:nonzero;fill:rgb(95.289612%,73.329163%,14.118958%);fill-opacity:1;" d="M 4.125 13.0625 L 4.460938 14.015625 L 5.304688 13.515625 L 5.214844 14.53125 L 6.1875 14.476562 L 5.675781 15.34375 L 6.570312 15.722656 L 5.75 16.238281 L 6.40625 16.988281 L 5.445312 17.113281 L 5.710938 18.097656 L 4.789062 17.769531 L 4.621094 18.773438 L 3.941406 18.054688 L 3.414062 18.886719 L 3.082031 17.933594 L 2.234375 18.433594 L 2.328125 17.417969 L 1.355469 17.472656 L 1.867188 16.609375 L 0.972656 16.226562 L 1.789062 15.710938 L 1.132812 14.964844 L 2.097656 14.835938 L 1.828125 13.855469 L 2.753906 14.179688 L 2.917969 13.179688 L 3.597656 13.894531 L 4.125 13.0625 "/>
</g>
<path style=" stroke:none;fill-rule:nonzero;fill:rgb(97.648621%,80.389404%,12.939453%);fill-opacity:1;" d="M 3.996094 14.125 C 4.976562 14.253906 5.667969 15.1875 5.542969 16.210938 C 5.417969 17.234375 4.523438 17.957031 3.542969 17.828125 C 2.566406 17.695312 1.875 16.761719 2 15.738281 C 2.125 14.714844 3.019531 13.992188 3.996094 14.125 "/>
<path style=" stroke:none;fill-rule:nonzero;fill:rgb(98.429871%,91.758728%,13.729858%);fill-opacity:1;" d="M 3.304688 14.683594 C 3.933594 14.421875 4.777344 14.855469 5.265625 15.320312 C 5.066406 14.753906 4.578125 14.320312 3.96875 14.238281 C 3.089844 14.121094 2.292969 14.769531 2.179688 15.683594 C 2.15625 15.867188 2.164062 16.042969 2.195312 16.214844 C 2.339844 15.609375 2.761719 14.9375 3.304688 14.683594 "/>
</g>
</svg>
