<?xml version="1.0" encoding="UTF-8"?>
<svg xmlns="http://www.w3.org/2000/svg" xmlns:xlink="http://www.w3.org/1999/xlink" width="30pt" height="30.000001pt" viewBox="0 0 30 30.000001" version="1.2">
<defs>
<clipPath id="clip1">
  <path d="M 0.484375 1.558594 L 28.644531 1.558594 L 28.644531 26.238281 L 0.484375 26.238281 Z M 0.484375 1.558594 "/>
</clipPath>
<clipPath id="clip2">
  <path d="M 0.484375 3 L 26 3 L 26 19 L 0.484375 19 Z M 0.484375 3 "/>
</clipPath>
<clipPath id="clip3">
  <path d="M 19 14 L 28.644531 14 L 28.644531 19 L 19 19 Z M 19 14 "/>
</clipPath>
<clipPath id="clip4">
  <path d="M 19 13 L 28.644531 13 L 28.644531 19 L 19 19 Z M 19 13 "/>
</clipPath>
</defs>
<g id="surface1">
<g clip-path="url(#clip1)" clip-rule="nonzero">
<path style=" stroke:none;fill-rule:nonzero;fill:rgb(78.039551%,92.939758%,90.19928%);fill-opacity:1;" d="M 27.335938 16.265625 C 27.722656 15.523438 27.945312 14.679688 27.945312 13.785156 C 27.945312 11.503906 26.527344 9.5625 24.535156 8.800781 C 24.535156 8.796875 24.535156 8.792969 24.535156 8.792969 C 24.535156 4.796875 21.328125 1.558594 17.371094 1.558594 C 14.03125 1.558594 11.234375 3.867188 10.441406 6.984375 C 9.9375 6.820312 9.398438 6.726562 8.839844 6.726562 C 6.214844 6.726562 4.058594 8.71875 3.761719 11.289062 C 1.984375 11.667969 0.652344 13.257812 0.652344 15.160156 C 0.652344 17.347656 2.410156 19.121094 4.578125 19.121094 C 4.636719 19.121094 4.695312 19.117188 4.753906 19.113281 C 4.753906 19.171875 4.746094 19.234375 4.746094 19.292969 C 4.746094 23.191406 7.878906 26.351562 11.742188 26.351562 C 13.9375 26.351562 15.894531 25.328125 17.175781 23.730469 C 17.921875 24.496094 18.953125 24.972656 20.097656 24.972656 C 21.6875 24.972656 23.058594 24.0625 23.738281 22.730469 C 24.097656 22.84375 24.480469 22.910156 24.875 22.910156 C 26.949219 22.910156 28.628906 21.210938 28.628906 19.121094 C 28.628906 17.980469 28.128906 16.960938 27.335938 16.265625 Z M 27.335938 16.265625 "/>
</g>
<path style=" stroke:none;fill-rule:nonzero;fill:rgb(99.21875%,98.81897%,93.728638%);fill-opacity:1;" d="M 13.234375 8.964844 C 13.234375 8.964844 14.476562 8.964844 15.324219 8.964844 C 16.171875 8.964844 16.859375 8.269531 16.859375 7.414062 C 16.859375 6.609375 16.25 5.957031 15.476562 5.878906 C 15.484375 5.816406 15.492188 5.757812 15.492188 5.691406 C 15.492188 4.835938 14.804688 4.144531 13.957031 4.144531 C 13.46875 4.144531 13.035156 4.378906 12.753906 4.742188 C 12.707031 3.832031 11.96875 3.109375 11.058594 3.109375 C 10.117188 3.109375 9.351562 3.882812 9.351562 4.832031 C 9.351562 4.984375 9.378906 5.132812 9.417969 5.273438 C 9.199219 5.003906 8.871094 4.832031 8.5 4.832031 C 7.890625 4.832031 7.394531 5.292969 7.320312 5.882812 C 7.257812 5.875 7.199219 5.863281 7.136719 5.863281 C 6.289062 5.863281 5.601562 6.558594 5.601562 7.414062 C 5.601562 8.269531 6.289062 8.964844 7.136719 8.964844 C 7.984375 8.964844 10.375 8.964844 10.375 8.964844 L 12.210938 8.964844 L 12.210938 9.136719 L 13.234375 9.136719 Z M 13.234375 8.964844 "/>
<path style=" stroke:none;fill-rule:nonzero;fill:rgb(27.839661%,16.859436%,16.079712%);fill-opacity:1;" d="M 11.058594 2.9375 C 10.023438 2.9375 9.183594 3.789062 9.183594 4.832031 C 9.183594 4.835938 9.183594 4.84375 9.183594 4.847656 C 8.976562 4.726562 8.742188 4.660156 8.5 4.660156 C 7.875 4.660156 7.335938 5.09375 7.183594 5.695312 C 7.167969 5.691406 7.152344 5.691406 7.136719 5.691406 C 6.195312 5.691406 5.429688 6.464844 5.429688 7.414062 C 5.429688 8.363281 6.195312 9.136719 7.136719 9.136719 L 12.210938 9.136719 C 12.304688 9.136719 12.378906 9.058594 12.378906 8.964844 C 12.378906 8.867188 12.304688 8.792969 12.210938 8.792969 L 7.136719 8.792969 C 6.382812 8.792969 5.769531 8.171875 5.769531 7.414062 C 5.769531 6.65625 6.382812 6.035156 7.136719 6.035156 C 7.175781 6.035156 7.214844 6.042969 7.253906 6.046875 L 7.300781 6.054688 C 7.308594 6.054688 7.3125 6.054688 7.320312 6.054688 C 7.40625 6.054688 7.480469 5.992188 7.492188 5.90625 C 7.554688 5.390625 7.988281 5.003906 8.5 5.003906 C 8.800781 5.003906 9.085938 5.140625 9.285156 5.382812 C 9.316406 5.421875 9.367188 5.445312 9.417969 5.445312 C 9.441406 5.445312 9.46875 5.4375 9.496094 5.425781 C 9.566406 5.390625 9.601562 5.308594 9.582031 5.230469 C 9.542969 5.078125 9.523438 4.953125 9.523438 4.832031 C 9.523438 3.976562 10.210938 3.28125 11.058594 3.28125 C 11.871094 3.28125 12.542969 3.925781 12.585938 4.75 C 12.589844 4.820312 12.636719 4.882812 12.703125 4.90625 C 12.722656 4.910156 12.738281 4.914062 12.753906 4.914062 C 12.808594 4.914062 12.855469 4.890625 12.890625 4.847656 C 13.152344 4.507812 13.542969 4.316406 13.957031 4.316406 C 14.710938 4.316406 15.324219 4.933594 15.324219 5.691406 C 15.324219 5.734375 15.316406 5.773438 15.3125 5.808594 L 15.304688 5.859375 C 15.300781 5.90625 15.3125 5.953125 15.34375 5.988281 C 15.371094 6.023438 15.414062 6.046875 15.457031 6.050781 C 16.160156 6.121094 16.6875 6.707031 16.6875 7.414062 C 16.6875 8.171875 16.074219 8.792969 15.324219 8.792969 L 13.234375 8.792969 C 13.140625 8.792969 13.0625 8.867188 13.0625 8.964844 C 13.0625 9.058594 13.140625 9.136719 13.234375 9.136719 L 15.324219 9.136719 C 16.265625 9.136719 17.027344 8.363281 17.027344 7.414062 C 17.027344 6.589844 16.453125 5.894531 15.664062 5.734375 C 15.664062 5.71875 15.664062 5.707031 15.664062 5.691406 C 15.664062 4.742188 14.898438 3.972656 13.957031 3.972656 C 13.558594 3.972656 13.175781 4.113281 12.871094 4.371094 C 12.667969 3.542969 11.929688 2.9375 11.058594 2.9375 Z M 11.058594 2.9375 "/>
<path style=" stroke:none;fill-rule:nonzero;fill:rgb(27.839661%,16.859436%,16.079712%);fill-opacity:1;" d="M 10.546875 5.347656 C 10.066406 5.347656 9.65625 5.691406 9.554688 6.152344 C 9.429688 6.078125 9.285156 6.035156 9.140625 6.035156 C 8.730469 6.035156 8.390625 6.34375 8.335938 6.75 C 8.265625 6.734375 8.203125 6.726562 8.136719 6.726562 C 7.617188 6.726562 7.179688 7.136719 7.140625 7.667969 C 7.136719 7.714844 7.175781 7.753906 7.222656 7.757812 C 7.222656 7.757812 7.226562 7.757812 7.226562 7.757812 C 7.269531 7.757812 7.308594 7.722656 7.3125 7.679688 C 7.34375 7.242188 7.703125 6.898438 8.136719 6.898438 C 8.214844 6.898438 8.296875 6.910156 8.390625 6.941406 C 8.394531 6.945312 8.402344 6.945312 8.410156 6.945312 C 8.429688 6.945312 8.449219 6.9375 8.464844 6.925781 C 8.488281 6.910156 8.5 6.882812 8.5 6.855469 C 8.5 6.5 8.785156 6.207031 9.140625 6.207031 C 9.292969 6.207031 9.441406 6.265625 9.558594 6.371094 C 9.574219 6.386719 9.59375 6.394531 9.617188 6.394531 C 9.625 6.394531 9.636719 6.390625 9.648438 6.386719 C 9.675781 6.375 9.699219 6.347656 9.699219 6.3125 C 9.734375 5.867188 10.105469 5.519531 10.546875 5.519531 C 10.617188 5.519531 10.691406 5.53125 10.78125 5.558594 C 10.789062 5.558594 10.796875 5.558594 10.804688 5.558594 C 10.839844 5.558594 10.875 5.535156 10.886719 5.496094 C 10.898438 5.453125 10.871094 5.40625 10.828125 5.390625 C 10.722656 5.363281 10.632812 5.347656 10.546875 5.347656 Z M 15.28125 5.863281 C 14.832031 5.863281 14.425781 6.171875 14.300781 6.617188 C 14.289062 6.660156 14.316406 6.710938 14.363281 6.722656 C 14.371094 6.722656 14.378906 6.726562 14.386719 6.726562 C 14.421875 6.726562 14.457031 6.699219 14.464844 6.664062 C 14.570312 6.292969 14.90625 6.035156 15.28125 6.035156 C 15.324219 6.035156 15.363281 6.042969 15.398438 6.046875 C 15.402344 6.046875 15.40625 6.046875 15.410156 6.046875 C 15.453125 6.046875 15.488281 6.015625 15.496094 5.972656 C 15.503906 5.925781 15.46875 5.882812 15.421875 5.875 C 15.378906 5.871094 15.332031 5.863281 15.28125 5.863281 Z M 15.28125 5.863281 "/>
<g clip-path="url(#clip2)" clip-rule="nonzero">
<path style=" stroke:none;fill-rule:nonzero;fill:rgb(100%,100%,100%);fill-opacity:1;" d="M 3.179688 16.710938 L -0.199219 16.710938 C -0.292969 16.710938 -0.371094 16.632812 -0.371094 16.539062 C -0.371094 16.445312 -0.292969 16.367188 -0.199219 16.367188 L 3.179688 16.367188 C 3.273438 16.367188 3.351562 16.445312 3.351562 16.539062 C 3.351562 16.632812 3.273438 16.710938 3.179688 16.710938 Z M 4.234375 16.710938 L 3.894531 16.710938 C 3.800781 16.710938 3.722656 16.632812 3.722656 16.539062 C 3.722656 16.445312 3.800781 16.367188 3.894531 16.367188 L 4.234375 16.367188 C 4.328125 16.367188 4.40625 16.445312 4.40625 16.539062 C 4.40625 16.632812 4.328125 16.710938 4.234375 16.710938 Z M 5.9375 17.398438 L 2.871094 17.398438 C 2.777344 17.398438 2.699219 17.324219 2.699219 17.226562 C 2.699219 17.132812 2.777344 17.054688 2.871094 17.054688 L 5.9375 17.054688 C 6.03125 17.054688 6.109375 17.132812 6.109375 17.226562 C 6.109375 17.324219 6.03125 17.398438 5.9375 17.398438 Z M 2.1875 17.398438 L 1.847656 17.398438 C 1.753906 17.398438 1.675781 17.324219 1.675781 17.226562 C 1.675781 17.132812 1.753906 17.054688 1.847656 17.054688 L 2.1875 17.054688 C 2.28125 17.054688 2.359375 17.132812 2.359375 17.226562 C 2.359375 17.324219 2.28125 17.398438 2.1875 17.398438 Z M 1.164062 17.398438 L 0.480469 17.398438 C 0.386719 17.398438 0.3125 17.324219 0.3125 17.226562 C 0.3125 17.132812 0.386719 17.054688 0.480469 17.054688 L 1.164062 17.054688 C 1.257812 17.054688 1.335938 17.132812 1.335938 17.226562 C 1.335938 17.324219 1.257812 17.398438 1.164062 17.398438 Z M 3.210938 18.089844 L 2.53125 18.089844 C 2.433594 18.089844 2.359375 18.011719 2.359375 17.914062 C 2.359375 17.820312 2.433594 17.742188 2.53125 17.742188 L 3.210938 17.742188 C 3.304688 17.742188 3.382812 17.820312 3.382812 17.914062 C 3.382812 18.011719 3.304688 18.089844 3.210938 18.089844 Z M 4.234375 14.988281 C 4.175781 14.988281 3.953125 14.988281 3.894531 14.988281 C 3.800781 14.988281 3.722656 15.066406 3.722656 15.160156 C 3.722656 15.257812 3.800781 15.332031 3.894531 15.332031 C 3.953125 15.332031 4.175781 15.332031 4.234375 15.332031 C 4.328125 15.332031 4.40625 15.257812 4.40625 15.160156 C 4.40625 15.066406 4.328125 14.988281 4.234375 14.988281 Z M 4.234375 15.679688 C 4.175781 15.679688 2.589844 15.679688 2.53125 15.679688 C 2.433594 15.679688 2.359375 15.753906 2.359375 15.851562 C 2.359375 15.945312 2.433594 16.023438 2.53125 16.023438 C 2.589844 16.023438 4.175781 16.023438 4.234375 16.023438 C 4.328125 16.023438 4.40625 15.945312 4.40625 15.851562 C 4.40625 15.753906 4.328125 15.679688 4.234375 15.679688 Z M 5.941406 16.367188 C 5.878906 16.367188 4.976562 16.367188 4.917969 16.367188 C 4.824219 16.367188 4.746094 16.445312 4.746094 16.539062 C 4.746094 16.632812 4.824219 16.710938 4.917969 16.710938 C 4.976562 16.710938 5.878906 16.710938 5.941406 16.710938 C 6.035156 16.710938 6.113281 16.632812 6.113281 16.539062 C 6.113281 16.445312 6.035156 16.367188 5.941406 16.367188 Z M 22.316406 5.003906 L 18.90625 5.003906 C 18.8125 5.003906 18.734375 4.925781 18.734375 4.832031 C 18.734375 4.738281 18.8125 4.660156 18.90625 4.660156 L 22.316406 4.660156 C 22.410156 4.660156 22.488281 4.738281 22.488281 4.832031 C 22.488281 4.925781 22.410156 5.003906 22.316406 5.003906 Z M 23.683594 5.003906 L 23 5.003906 C 22.90625 5.003906 22.828125 4.925781 22.828125 4.832031 C 22.828125 4.738281 22.90625 4.660156 23 4.660156 L 23.683594 4.660156 C 23.777344 4.660156 23.851562 4.738281 23.851562 4.832031 C 23.851562 4.925781 23.777344 5.003906 23.683594 5.003906 Z M 25.386719 5.691406 L 21.976562 5.691406 C 21.882812 5.691406 21.804688 5.617188 21.804688 5.519531 C 21.804688 5.425781 21.882812 5.347656 21.976562 5.347656 L 25.386719 5.347656 C 25.480469 5.347656 25.558594 5.425781 25.558594 5.519531 C 25.558594 5.617188 25.480469 5.691406 25.386719 5.691406 Z M 21.292969 5.691406 L 20.953125 5.691406 C 20.859375 5.691406 20.78125 5.617188 20.78125 5.519531 C 20.78125 5.425781 20.859375 5.347656 20.953125 5.347656 L 21.292969 5.347656 C 21.386719 5.347656 21.464844 5.425781 21.464844 5.519531 C 21.464844 5.617188 21.386719 5.691406 21.292969 5.691406 Z M 20.226562 5.691406 L 19.585938 5.691406 C 19.492188 5.691406 19.417969 5.617188 19.417969 5.519531 C 19.417969 5.425781 19.492188 5.347656 19.585938 5.347656 L 20.226562 5.347656 C 20.320312 5.347656 20.398438 5.425781 20.398438 5.519531 C 20.398438 5.617188 20.320312 5.691406 20.226562 5.691406 Z M 23.339844 4.316406 L 21.632812 4.316406 C 21.539062 4.316406 21.464844 4.238281 21.464844 4.144531 C 21.464844 4.046875 21.539062 3.972656 21.632812 3.972656 L 23.339844 3.972656 C 23.433594 3.972656 23.511719 4.046875 23.511719 4.144531 C 23.511719 4.238281 23.433594 4.316406 23.339844 4.316406 Z M 22.316406 6.382812 L 21.632812 6.382812 C 21.539062 6.382812 21.464844 6.304688 21.464844 6.207031 C 21.464844 6.113281 21.539062 6.035156 21.632812 6.035156 L 22.316406 6.035156 C 22.410156 6.035156 22.488281 6.113281 22.488281 6.207031 C 22.488281 6.304688 22.410156 6.382812 22.316406 6.382812 Z M 22.316406 6.382812 "/>
</g>
<path style=" stroke:none;fill-rule:nonzero;fill:rgb(66.268921%,84.309387%,79.60968%);fill-opacity:1;" d="M 10.929688 17.503906 C 10.285156 17.503906 9.761719 16.972656 9.761719 16.324219 L 9.761719 8.835938 C 9.761719 8.183594 10.285156 7.65625 10.929688 7.65625 L 20.054688 7.65625 C 20.699219 7.65625 21.226562 8.183594 21.226562 8.835938 L 21.226562 16.324219 C 21.226562 16.972656 20.699219 17.503906 20.054688 17.503906 Z M 10.929688 17.503906 "/>
<path style=" stroke:none;fill-rule:nonzero;fill:rgb(27.839661%,16.859436%,16.079712%);fill-opacity:1;" d="M 20.054688 7.894531 C 20.570312 7.894531 20.988281 8.316406 20.988281 8.835938 L 20.988281 16.324219 C 20.988281 16.839844 20.570312 17.261719 20.054688 17.261719 L 10.929688 17.261719 C 10.417969 17.261719 10 16.839844 10 16.324219 L 10 8.835938 C 10 8.316406 10.417969 7.894531 10.929688 7.894531 L 20.054688 7.894531 M 20.054688 7.414062 L 10.929688 7.414062 C 10.15625 7.414062 9.523438 8.054688 9.523438 8.835938 L 9.523438 16.324219 C 9.523438 17.105469 10.15625 17.742188 10.929688 17.742188 L 20.054688 17.742188 C 20.832031 17.742188 21.464844 17.105469 21.464844 16.324219 L 21.464844 8.835938 C 21.464844 8.054688 20.832031 7.414062 20.054688 7.414062 Z M 20.054688 7.414062 "/>
<path style=" stroke:none;fill-rule:nonzero;fill:rgb(66.268921%,84.309387%,79.60968%);fill-opacity:1;" d="M 10.097656 19.914062 C 9.347656 19.914062 8.738281 19.296875 8.738281 18.539062 L 8.738281 10.40625 C 8.738281 9.648438 9.347656 9.03125 10.097656 9.03125 L 20.890625 9.03125 C 21.640625 9.03125 22.25 9.648438 22.25 10.40625 L 22.25 18.539062 C 22.25 19.296875 21.640625 19.914062 20.890625 19.914062 Z M 10.097656 19.914062 "/>
<path style=" stroke:none;fill-rule:nonzero;fill:rgb(27.839661%,16.859436%,16.079712%);fill-opacity:1;" d="M 20.890625 9.273438 C 21.507812 9.273438 22.011719 9.78125 22.011719 10.40625 L 22.011719 18.539062 C 22.011719 19.164062 21.507812 19.671875 20.890625 19.671875 L 10.097656 19.671875 C 9.480469 19.671875 8.976562 19.164062 8.976562 18.539062 L 8.976562 10.40625 C 8.976562 9.78125 9.480469 9.273438 10.097656 9.273438 L 20.890625 9.273438 M 20.890625 8.792969 L 10.097656 8.792969 C 9.21875 8.792969 8.5 9.515625 8.5 10.40625 L 8.5 18.539062 C 8.5 19.429688 9.21875 20.152344 10.097656 20.152344 L 20.890625 20.152344 C 21.769531 20.152344 22.488281 19.429688 22.488281 18.539062 L 22.488281 10.40625 C 22.488281 9.515625 21.769531 8.792969 20.890625 8.792969 Z M 20.890625 8.792969 "/>
<path style=" stroke:none;fill-rule:nonzero;fill:rgb(47.059631%,62.748718%,81.17981%);fill-opacity:1;" d="M 9.492188 21.289062 C 8.699219 21.289062 8.054688 20.640625 8.054688 19.839844 L 8.054688 11.859375 C 8.054688 11.058594 8.699219 10.410156 9.492188 10.410156 L 21.496094 10.410156 C 22.285156 10.410156 22.929688 11.058594 22.929688 11.859375 L 22.929688 19.839844 C 22.929688 20.640625 22.285156 21.289062 21.496094 21.289062 Z M 9.492188 21.289062 "/>
<path style=" stroke:none;fill-rule:nonzero;fill:rgb(27.839661%,16.859436%,16.079712%);fill-opacity:1;" d="M 21.496094 10.652344 C 22.15625 10.652344 22.691406 11.191406 22.691406 11.859375 L 22.691406 19.839844 C 22.691406 20.507812 22.15625 21.050781 21.496094 21.050781 L 9.492188 21.050781 C 8.832031 21.050781 8.296875 20.507812 8.296875 19.839844 L 8.296875 11.859375 C 8.296875 11.191406 8.832031 10.652344 9.492188 10.652344 L 21.496094 10.652344 M 21.496094 10.167969 L 9.492188 10.167969 C 8.570312 10.167969 7.816406 10.929688 7.816406 11.859375 L 7.816406 19.839844 C 7.816406 20.769531 8.570312 21.53125 9.492188 21.53125 L 21.496094 21.53125 C 22.417969 21.53125 23.171875 20.769531 23.171875 19.839844 L 23.171875 11.859375 C 23.171875 10.929688 22.417969 10.167969 21.496094 10.167969 Z M 21.496094 10.167969 "/>
<path style=" stroke:none;fill-rule:nonzero;fill:rgb(92.939758%,86.268616%,40.388489%);fill-opacity:1;" d="M 18.398438 15.539062 L 14.0625 13.347656 C 13.832031 13.230469 13.5625 13.402344 13.5625 13.660156 L 13.5625 18.039062 C 13.5625 18.296875 13.832031 18.46875 14.0625 18.351562 L 18.398438 16.164062 C 18.65625 16.035156 18.65625 15.667969 18.398438 15.539062 Z M 18.398438 15.539062 "/>
<path style=" stroke:none;fill-rule:nonzero;fill:rgb(27.839661%,16.859436%,16.079712%);fill-opacity:1;" d="M 13.90625 18.5625 C 13.8125 18.5625 13.71875 18.535156 13.632812 18.480469 C 13.480469 18.386719 13.390625 18.21875 13.390625 18.039062 L 13.390625 13.660156 C 13.390625 13.480469 13.480469 13.3125 13.632812 13.21875 C 13.789062 13.121094 13.976562 13.113281 14.136719 13.195312 L 18.476562 15.382812 C 18.652344 15.472656 18.761719 15.652344 18.761719 15.851562 C 18.761719 16.050781 18.652344 16.226562 18.476562 16.316406 L 14.136719 18.503906 C 14.066406 18.542969 13.984375 18.5625 13.90625 18.5625 Z M 13.90625 13.484375 C 13.863281 13.484375 13.832031 13.5 13.816406 13.511719 C 13.789062 13.527344 13.730469 13.570312 13.730469 13.660156 L 13.730469 18.039062 C 13.730469 18.128906 13.789062 18.175781 13.816406 18.191406 C 13.839844 18.207031 13.90625 18.238281 13.984375 18.199219 L 18.324219 16.007812 C 18.382812 15.976562 18.421875 15.917969 18.421875 15.851562 C 18.421875 15.78125 18.382812 15.722656 18.324219 15.691406 L 13.984375 13.503906 C 13.957031 13.488281 13.929688 13.484375 13.90625 13.484375 Z M 13.90625 13.484375 "/>
<path style=" stroke:none;fill-rule:nonzero;fill:rgb(27.839661%,16.859436%,16.079712%);fill-opacity:1;" d="M 14.8125 12.234375 L 9.011719 12.234375 C 8.917969 12.234375 8.839844 12.15625 8.839844 12.0625 C 8.839844 11.96875 8.917969 11.890625 9.011719 11.890625 L 14.8125 11.890625 C 14.90625 11.890625 14.980469 11.96875 14.980469 12.0625 C 14.980469 12.15625 14.90625 12.234375 14.8125 12.234375 Z M 14.8125 12.234375 "/>
<path style=" stroke:none;fill-rule:nonzero;fill:rgb(27.839661%,16.859436%,16.079712%);fill-opacity:1;" d="M 17.539062 12.234375 L 15.835938 12.234375 C 15.742188 12.234375 15.664062 12.15625 15.664062 12.0625 C 15.664062 11.96875 15.742188 11.890625 15.835938 11.890625 L 17.539062 11.890625 C 17.636719 11.890625 17.710938 11.96875 17.710938 12.0625 C 17.710938 12.15625 17.636719 12.234375 17.539062 12.234375 Z M 17.539062 12.234375 "/>
<path style=" stroke:none;fill-rule:nonzero;fill:rgb(27.839661%,16.859436%,16.079712%);fill-opacity:1;" d="M 21.976562 12.234375 L 18.5625 12.234375 C 18.46875 12.234375 18.394531 12.15625 18.394531 12.0625 C 18.394531 11.96875 18.46875 11.890625 18.5625 11.890625 L 21.976562 11.890625 C 22.070312 11.890625 22.144531 11.96875 22.144531 12.0625 C 22.144531 12.15625 22.070312 12.234375 21.976562 12.234375 Z M 21.976562 12.234375 "/>
<path style=" stroke:none;fill-rule:nonzero;fill:rgb(27.839661%,16.859436%,16.079712%);fill-opacity:1;" d="M 21.976562 19.808594 L 16.859375 19.808594 C 16.765625 19.808594 16.6875 19.734375 16.6875 19.636719 C 16.6875 19.542969 16.765625 19.464844 16.859375 19.464844 L 21.976562 19.464844 C 22.070312 19.464844 22.144531 19.542969 22.144531 19.636719 C 22.144531 19.734375 22.070312 19.808594 21.976562 19.808594 Z M 21.976562 19.808594 "/>
<path style=" stroke:none;fill-rule:nonzero;fill:rgb(27.839661%,16.859436%,16.079712%);fill-opacity:1;" d="M 15.835938 19.808594 L 14.8125 19.808594 C 14.71875 19.808594 14.640625 19.734375 14.640625 19.636719 C 14.640625 19.542969 14.71875 19.464844 14.8125 19.464844 L 15.835938 19.464844 C 15.929688 19.464844 16.003906 19.542969 16.003906 19.636719 C 16.003906 19.734375 15.929688 19.808594 15.835938 19.808594 Z M 15.835938 19.808594 "/>
<path style=" stroke:none;fill-rule:nonzero;fill:rgb(27.839661%,16.859436%,16.079712%);fill-opacity:1;" d="M 13.789062 19.808594 L 11.398438 19.808594 C 11.304688 19.808594 11.230469 19.734375 11.230469 19.636719 C 11.230469 19.542969 11.304688 19.464844 11.398438 19.464844 L 13.789062 19.464844 C 13.882812 19.464844 13.957031 19.542969 13.957031 19.636719 C 13.957031 19.734375 13.882812 19.808594 13.789062 19.808594 Z M 13.789062 19.808594 "/>
<path style=" stroke:none;fill-rule:nonzero;fill:rgb(27.839661%,16.859436%,16.079712%);fill-opacity:1;" d="M 10.375 19.808594 L 9.011719 19.808594 C 8.917969 19.808594 8.839844 19.734375 8.839844 19.636719 C 8.839844 19.542969 8.917969 19.464844 9.011719 19.464844 L 10.375 19.464844 C 10.46875 19.464844 10.546875 19.542969 10.546875 19.636719 C 10.546875 19.734375 10.46875 19.808594 10.375 19.808594 Z M 10.375 19.808594 "/>
<g clip-path="url(#clip3)" clip-rule="nonzero">
<path style=" stroke:none;fill-rule:nonzero;fill:rgb(99.21875%,98.81897%,93.728638%);fill-opacity:1;" d="M 26.070312 18.605469 C 26.070312 18.605469 26.605469 18.605469 27.265625 18.605469 C 27.921875 18.605469 28.457031 18.066406 28.457031 17.398438 C 28.457031 16.785156 28.003906 16.285156 27.414062 16.210938 C 27.425781 16.148438 27.433594 16.085938 27.433594 16.023438 C 27.433594 15.355469 26.898438 14.816406 26.242188 14.816406 C 25.886719 14.816406 25.574219 14.972656 25.355469 15.21875 C 25.226562 14.59375 24.679688 14.128906 24.023438 14.128906 C 23.269531 14.128906 22.660156 14.746094 22.660156 15.503906 C 22.660156 15.570312 22.667969 15.632812 22.675781 15.699219 C 22.53125 15.578125 22.347656 15.503906 22.144531 15.503906 C 21.726562 15.503906 21.378906 15.8125 21.308594 16.214844 C 21.246094 16.203125 21.1875 16.195312 21.121094 16.195312 C 20.464844 16.195312 19.929688 16.734375 19.929688 17.398438 C 19.929688 18.066406 20.464844 18.605469 21.121094 18.605469 C 21.78125 18.605469 23.683594 18.605469 23.683594 18.605469 L 23.683594 18.777344 L 26.070312 18.777344 Z M 26.070312 18.605469 "/>
</g>
<path style=" stroke:none;fill-rule:nonzero;fill:rgb(27.839661%,16.859436%,16.079712%);fill-opacity:1;" d="M 26.667969 17.054688 C 26.621094 17.054688 26.582031 17.015625 26.582031 16.96875 C 26.582031 16.546875 26.921875 16.207031 27.339844 16.207031 C 27.351562 16.207031 27.589844 16.203125 27.761719 16.253906 C 27.808594 16.265625 27.835938 16.3125 27.824219 16.359375 C 27.808594 16.402344 27.765625 16.429688 27.71875 16.417969 C 27.566406 16.375 27.34375 16.375 27.339844 16.378906 C 27.015625 16.378906 26.753906 16.644531 26.753906 16.96875 C 26.753906 17.015625 26.714844 17.054688 26.667969 17.054688 Z M 24.363281 18.433594 C 24.25 18.433594 24.195312 18.488281 24.195312 18.605469 C 24.195312 18.71875 24.25 18.777344 24.363281 18.777344 C 24.476562 18.777344 24.535156 18.71875 24.535156 18.605469 C 24.535156 18.488281 24.476562 18.433594 24.363281 18.433594 Z M 24.363281 18.433594 "/>
<g clip-path="url(#clip4)" clip-rule="nonzero">
<path style=" stroke:none;fill-rule:nonzero;fill:rgb(27.839661%,16.859436%,16.079712%);fill-opacity:1;" d="M 27.265625 18.777344 L 26.070312 18.777344 C 25.976562 18.777344 25.898438 18.699219 25.898438 18.605469 C 25.898438 18.507812 25.976562 18.433594 26.070312 18.433594 L 27.265625 18.433594 C 27.828125 18.433594 28.289062 17.96875 28.289062 17.398438 C 28.289062 16.882812 27.902344 16.445312 27.394531 16.378906 C 27.347656 16.375 27.308594 16.351562 27.28125 16.3125 C 27.253906 16.277344 27.242188 16.230469 27.246094 16.183594 C 27.253906 16.128906 27.265625 16.078125 27.265625 16.023438 C 27.265625 15.453125 26.804688 14.988281 26.242188 14.988281 C 25.949219 14.988281 25.679688 15.113281 25.484375 15.332031 C 25.441406 15.382812 25.375 15.402344 25.3125 15.382812 C 25.25 15.367188 25.203125 15.316406 25.191406 15.253906 C 25.074219 14.703125 24.582031 14.300781 24.023438 14.300781 C 23.363281 14.300781 22.828125 14.839844 22.828125 15.503906 C 22.828125 15.554688 22.835938 15.601562 22.84375 15.648438 C 22.851562 15.71875 22.820312 15.800781 22.761719 15.835938 C 22.699219 15.871094 22.625 15.875 22.570312 15.832031 C 22.445312 15.730469 22.300781 15.679688 22.144531 15.679688 C 21.816406 15.679688 21.535156 15.914062 21.476562 16.242188 C 21.460938 16.335938 21.375 16.398438 21.28125 16.382812 C 21.230469 16.375 21.175781 16.367188 21.121094 16.367188 C 20.558594 16.367188 20.097656 16.828125 20.097656 17.398438 C 20.097656 17.96875 20.558594 18.433594 21.121094 18.433594 L 23.683594 18.433594 C 23.777344 18.433594 23.851562 18.507812 23.851562 18.605469 C 23.851562 18.699219 23.777344 18.777344 23.683594 18.777344 L 21.121094 18.777344 C 20.371094 18.777344 19.757812 18.160156 19.757812 17.398438 C 19.757812 16.640625 20.371094 16.023438 21.121094 16.023438 C 21.144531 16.023438 21.164062 16.023438 21.183594 16.023438 C 21.324219 15.617188 21.707031 15.332031 22.144531 15.332031 C 22.265625 15.332031 22.382812 15.355469 22.492188 15.394531 C 22.546875 14.59375 23.214844 13.957031 24.023438 13.957031 C 24.648438 13.957031 25.207031 14.34375 25.441406 14.910156 C 25.671875 14.738281 25.953125 14.644531 26.242188 14.644531 C 26.992188 14.644531 27.605469 15.261719 27.605469 16.023438 C 27.605469 16.039062 27.605469 16.054688 27.605469 16.070312 C 28.199219 16.226562 28.628906 16.769531 28.628906 17.398438 C 28.628906 18.160156 28.015625 18.777344 27.265625 18.777344 Z M 27.265625 18.777344 "/>
</g>
<path style=" stroke:none;fill-rule:nonzero;fill:rgb(27.839661%,16.859436%,16.079712%);fill-opacity:1;" d="M 25.386719 18.433594 C 25.332031 18.433594 25.101562 18.433594 25.046875 18.433594 C 24.953125 18.433594 24.875 18.507812 24.875 18.605469 C 24.875 18.699219 24.953125 18.777344 25.046875 18.777344 C 25.101562 18.777344 25.332031 18.777344 25.386719 18.777344 C 25.480469 18.777344 25.558594 18.699219 25.558594 18.605469 C 25.558594 18.507812 25.480469 18.433594 25.386719 18.433594 Z M 25.386719 18.433594 "/>
</g>
</svg>
