<?xml version="1.0" encoding="UTF-8"?>
<svg xmlns="http://www.w3.org/2000/svg" xmlns:xlink="http://www.w3.org/1999/xlink" width="30pt" height="30.000001pt" viewBox="0 0 30 30.000001" version="1.2">
<defs>
<clipPath id="clip1">
  <path d="M 0.484375 5 L 3 5 L 3 8 L 0.484375 8 Z M 0.484375 5 "/>
</clipPath>
<clipPath id="clip2">
  <path d="M 1 0 L 29.515625 0 L 29.515625 29 L 1 29 Z M 1 0 "/>
</clipPath>
<clipPath id="clip3">
  <path d="M 26 0 L 29.515625 0 L 29.515625 3 L 26 3 Z M 26 0 "/>
</clipPath>
<clipPath id="clip4">
  <path d="M 28 3 L 29.515625 3 L 29.515625 6 L 28 6 Z M 28 3 "/>
</clipPath>
<clipPath id="clip5">
  <path d="M 0.484375 17 L 28 17 L 28 25 L 0.484375 25 Z M 0.484375 17 "/>
</clipPath>
<clipPath id="clip6">
  <path d="M 5 27 L 7 27 L 7 29.03125 L 5 29.03125 Z M 5 27 "/>
</clipPath>
</defs>
<g id="surface1">
<g clip-path="url(#clip1)" clip-rule="nonzero">
<path style=" stroke:none;fill-rule:nonzero;fill:rgb(93.328857%,24.308777%,32.939148%);fill-opacity:1;" d="M 1.320312 5.5 C 1.113281 5.5 0.933594 5.574219 0.785156 5.722656 C 0.632812 5.875 0.558594 6.050781 0.558594 6.261719 C 0.558594 6.472656 0.632812 6.652344 0.785156 6.800781 C 0.933594 6.949219 1.113281 7.023438 1.320312 7.023438 C 1.53125 7.023438 1.710938 6.949219 1.859375 6.800781 C 2.011719 6.652344 2.085938 6.472656 2.085938 6.261719 C 2.085938 6.050781 2.011719 5.875 1.859375 5.722656 C 1.710938 5.574219 1.53125 5.5 1.320312 5.5 Z M 1.320312 5.5 "/>
</g>
<path style=" stroke:none;fill-rule:nonzero;fill:rgb(94.509888%,73.728943%,9.799194%);fill-opacity:1;" d="M 25.710938 -0.214844 C 25.605469 -0.214844 25.515625 -0.179688 25.441406 -0.101562 C 25.367188 -0.0273438 25.328125 0.0625 25.328125 0.167969 C 25.328125 0.269531 25.367188 0.359375 25.441406 0.433594 C 25.515625 0.511719 25.605469 0.546875 25.710938 0.546875 C 25.816406 0.546875 25.90625 0.511719 25.980469 0.433594 C 26.054688 0.359375 26.089844 0.269531 26.089844 0.167969 C 26.089844 0.0625 26.054688 -0.0273438 25.980469 -0.101562 C 25.90625 -0.179688 25.816406 -0.214844 25.710938 -0.214844 Z M 25.710938 -0.214844 "/>
<g clip-path="url(#clip2)" clip-rule="nonzero">
<path style=" stroke:none;fill-rule:nonzero;fill:rgb(98.81897%,87.838745%,63.529968%);fill-opacity:1;" d="M 15.421875 0.167969 C 14.496094 0.167969 13.578125 0.257812 12.671875 0.4375 C 11.761719 0.617188 10.882812 0.886719 10.027344 1.238281 C 9.171875 1.59375 8.359375 2.027344 7.589844 2.542969 C 6.820312 3.054688 6.105469 3.640625 5.453125 4.296875 C 4.796875 4.949219 4.210938 5.664062 3.699219 6.433594 C 3.183594 7.203125 2.75 8.015625 2.394531 8.871094 C 2.042969 9.726562 1.773438 10.605469 1.59375 11.515625 C 1.414062 12.421875 1.320312 13.339844 1.320312 14.265625 C 1.320312 15.191406 1.414062 16.109375 1.59375 17.015625 C 1.773438 17.925781 2.042969 18.804688 2.394531 19.660156 C 2.75 20.515625 3.183594 21.328125 3.699219 22.097656 C 4.210938 22.867188 4.796875 23.582031 5.453125 24.234375 C 6.105469 24.890625 6.820312 25.472656 7.589844 25.988281 C 8.359375 26.503906 9.171875 26.9375 10.027344 27.292969 C 10.882812 27.644531 11.761719 27.914062 12.671875 28.09375 C 13.578125 28.273438 14.496094 28.363281 15.421875 28.363281 C 16.347656 28.363281 17.265625 28.273438 18.171875 28.09375 C 19.082031 27.914062 19.960938 27.644531 20.816406 27.292969 C 21.671875 26.9375 22.484375 26.503906 23.253906 25.988281 C 24.023438 25.472656 24.738281 24.890625 25.390625 24.234375 C 26.046875 23.582031 26.628906 22.867188 27.144531 22.097656 C 27.660156 21.328125 28.09375 20.515625 28.449219 19.660156 C 28.800781 18.804688 29.070312 17.925781 29.25 17.015625 C 29.429688 16.109375 29.519531 15.191406 29.519531 14.265625 C 29.519531 13.339844 29.429688 12.421875 29.25 11.515625 C 29.070312 10.605469 28.800781 9.726562 28.449219 8.871094 C 28.09375 8.015625 27.660156 7.203125 27.144531 6.433594 C 26.628906 5.664062 26.046875 4.949219 25.390625 4.296875 C 24.738281 3.640625 24.023438 3.054688 23.253906 2.542969 C 22.484375 2.027344 21.671875 1.59375 20.816406 1.238281 C 19.960938 0.886719 19.082031 0.617188 18.171875 0.4375 C 17.265625 0.257812 16.347656 0.167969 15.421875 0.167969 Z M 15.421875 0.167969 "/>
</g>
<g clip-path="url(#clip3)" clip-rule="nonzero">
<path style=" stroke:none;fill-rule:nonzero;fill:rgb(94.509888%,73.728943%,9.799194%);fill-opacity:1;" d="M 27.996094 -0.597656 C 27.792969 -0.597656 27.601562 -0.558594 27.414062 -0.480469 C 27.226562 -0.402344 27.0625 -0.292969 26.917969 -0.148438 C 26.777344 -0.0078125 26.667969 0.15625 26.589844 0.34375 C 26.511719 0.53125 26.472656 0.726562 26.472656 0.929688 C 26.472656 1.128906 26.511719 1.324219 26.589844 1.511719 C 26.667969 1.699219 26.777344 1.863281 26.917969 2.007812 C 27.0625 2.148438 27.226562 2.257812 27.414062 2.335938 C 27.601562 2.414062 27.792969 2.453125 27.996094 2.453125 C 28.199219 2.453125 28.394531 2.414062 28.582031 2.335938 C 28.765625 2.257812 28.933594 2.148438 29.074219 2.007812 C 29.21875 1.863281 29.328125 1.699219 29.40625 1.511719 C 29.484375 1.324219 29.519531 1.128906 29.519531 0.929688 C 29.519531 0.726562 29.484375 0.53125 29.40625 0.34375 C 29.328125 0.15625 29.21875 -0.0078125 29.074219 -0.148438 C 28.933594 -0.292969 28.765625 -0.402344 28.582031 -0.480469 C 28.394531 -0.558594 28.199219 -0.597656 27.996094 -0.597656 Z M 27.996094 -0.597656 "/>
</g>
<g clip-path="url(#clip4)" clip-rule="nonzero">
<path style=" stroke:none;fill-rule:nonzero;fill:rgb(93.328857%,24.308777%,32.939148%);fill-opacity:1;" d="M 29.519531 3.59375 C 29.3125 3.59375 29.132812 3.671875 28.980469 3.820312 C 28.832031 3.96875 28.757812 4.148438 28.757812 4.359375 C 28.757812 4.566406 28.832031 4.746094 28.980469 4.898438 C 29.132812 5.046875 29.3125 5.121094 29.519531 5.121094 C 29.730469 5.121094 29.910156 5.046875 30.058594 4.898438 C 30.210938 4.746094 30.285156 4.566406 30.285156 4.359375 C 30.285156 4.148438 30.210938 3.96875 30.058594 3.820312 C 29.910156 3.671875 29.730469 3.59375 29.519531 3.59375 Z M 29.519531 3.59375 "/>
</g>
<g clip-path="url(#clip5)" clip-rule="nonzero">
<path style=" stroke:none;fill-rule:nonzero;fill:rgb(98.429871%,80.389404%,34.899902%);fill-opacity:1;" d="M 27.234375 23.410156 C 27.023438 23.410156 26.84375 23.484375 26.695312 23.632812 C 26.546875 23.785156 26.472656 23.964844 26.472656 24.171875 C 26.472656 24.382812 26.546875 24.5625 26.695312 24.710938 C 26.84375 24.859375 27.023438 24.933594 27.234375 24.933594 C 27.445312 24.933594 27.625 24.859375 27.773438 24.710938 C 27.921875 24.5625 27.996094 24.382812 27.996094 24.171875 C 27.996094 23.964844 27.921875 23.785156 27.773438 23.632812 C 27.625 23.484375 27.445312 23.410156 27.234375 23.410156 Z M 2.085938 17.695312 C 1.882812 17.695312 1.6875 17.734375 1.5 17.8125 C 1.3125 17.886719 1.148438 18 1.007812 18.140625 C 0.863281 18.285156 0.753906 18.449219 0.675781 18.636719 C 0.597656 18.824219 0.558594 19.015625 0.558594 19.21875 C 0.558594 19.421875 0.597656 19.617188 0.675781 19.804688 C 0.753906 19.988281 0.863281 20.15625 1.007812 20.296875 C 1.148438 20.441406 1.3125 20.550781 1.5 20.628906 C 1.6875 20.707031 1.882812 20.742188 2.085938 20.742188 C 2.285156 20.742188 2.480469 20.707031 2.667969 20.628906 C 2.855469 20.550781 3.019531 20.441406 3.164062 20.296875 C 3.304688 20.15625 3.414062 19.988281 3.492188 19.804688 C 3.570312 19.617188 3.609375 19.421875 3.609375 19.21875 C 3.609375 19.015625 3.570312 18.824219 3.492188 18.636719 C 3.414062 18.449219 3.304688 18.285156 3.164062 18.140625 C 3.019531 18 2.855469 17.886719 2.667969 17.8125 C 2.480469 17.734375 2.285156 17.695312 2.085938 17.695312 Z M 2.085938 17.695312 "/>
</g>
<g clip-path="url(#clip6)" clip-rule="nonzero">
<path style=" stroke:none;fill-rule:nonzero;fill:rgb(93.328857%,24.308777%,32.939148%);fill-opacity:1;" d="M 5.894531 27.601562 C 5.683594 27.601562 5.503906 27.675781 5.355469 27.828125 C 5.207031 27.976562 5.132812 28.15625 5.132812 28.363281 C 5.132812 28.574219 5.207031 28.753906 5.355469 28.902344 C 5.503906 29.054688 5.683594 29.128906 5.894531 29.128906 C 6.105469 29.128906 6.285156 29.054688 6.433594 28.902344 C 6.582031 28.753906 6.65625 28.574219 6.65625 28.363281 C 6.65625 28.15625 6.582031 27.976562 6.433594 27.828125 C 6.285156 27.675781 6.105469 27.601562 5.894531 27.601562 Z M 5.894531 27.601562 "/>
</g>
<path style=" stroke:none;fill-rule:nonzero;fill:rgb(100%,100%,100%);fill-opacity:1;" d="M 3.417969 14.648438 C 3.15625 14.648438 2.929688 14.738281 2.746094 14.925781 C 2.558594 15.113281 2.464844 15.335938 2.464844 15.597656 C 2.464844 15.863281 2.558594 16.085938 2.746094 16.273438 C 2.929688 16.460938 3.15625 16.550781 3.417969 16.550781 C 3.679688 16.550781 3.90625 16.460938 4.089844 16.273438 C 4.277344 16.085938 4.371094 15.863281 4.371094 15.597656 C 4.371094 15.335938 4.277344 15.113281 4.089844 14.925781 C 3.90625 14.738281 3.679688 14.648438 3.417969 14.648438 Z M 3.417969 14.648438 "/>
<path style=" stroke:none;fill-rule:nonzero;fill:rgb(94.509888%,73.728943%,9.799194%);fill-opacity:1;" d="M 4.371094 20.363281 C 4.265625 20.363281 4.175781 20.398438 4.101562 20.472656 C 4.027344 20.546875 3.988281 20.636719 3.988281 20.742188 C 3.988281 20.847656 4.027344 20.9375 4.101562 21.011719 C 4.175781 21.085938 4.265625 21.125 4.371094 21.125 C 4.476562 21.125 4.566406 21.085938 4.640625 21.011719 C 4.714844 20.9375 4.75 20.847656 4.75 20.742188 C 4.75 20.636719 4.714844 20.546875 4.640625 20.472656 C 4.566406 20.398438 4.476562 20.363281 4.371094 20.363281 Z M 4.371094 20.363281 "/>
<path style=" stroke:none;fill-rule:nonzero;fill:rgb(100%,100%,100%);fill-opacity:1;" d="M 26.855469 7.789062 C 26.75 7.789062 26.660156 7.824219 26.585938 7.898438 C 26.511719 7.972656 26.472656 8.0625 26.472656 8.167969 C 26.472656 8.273438 26.511719 8.363281 26.585938 8.4375 C 26.660156 8.511719 26.75 8.550781 26.855469 8.550781 C 26.960938 8.550781 27.050781 8.511719 27.125 8.4375 C 27.199219 8.363281 27.234375 8.273438 27.234375 8.167969 C 27.234375 8.0625 27.199219 7.972656 27.125 7.898438 C 27.050781 7.824219 26.960938 7.789062 26.855469 7.789062 Z M 26.855469 7.789062 "/>
<path style=" stroke:none;fill-rule:nonzero;fill:rgb(91.758728%,31.759644%,40.388489%);fill-opacity:1;" d="M 15.613281 22.574219 C 15.074219 22.574219 14.5625 22.371094 14.164062 22.007812 C 13.890625 21.75 13.550781 21.613281 13.207031 21.613281 L 6.65625 21.613281 C 6.171875 21.613281 5.78125 21.21875 5.78125 20.734375 L 5.78125 9.074219 C 5.78125 8.59375 6.171875 8.199219 6.65625 8.199219 L 24.570312 8.199219 C 25.050781 8.199219 25.445312 8.59375 25.445312 9.074219 L 25.445312 20.734375 C 25.445312 21.21875 25.050781 21.613281 24.570312 21.613281 L 18.015625 21.613281 C 17.675781 21.613281 17.335938 21.75 17.058594 22.007812 C 16.664062 22.371094 16.148438 22.574219 15.613281 22.574219 Z M 15.613281 22.574219 "/>
<path style=" stroke:none;fill-rule:nonzero;fill:rgb(27.839661%,16.859436%,16.079712%);fill-opacity:1;" d="M 24.570312 8.464844 C 24.902344 8.464844 25.175781 8.738281 25.175781 9.074219 L 25.175781 20.734375 C 25.175781 21.070312 24.902344 21.34375 24.570312 21.34375 L 18.015625 21.34375 C 17.605469 21.34375 17.203125 21.507812 16.878906 21.808594 C 16.53125 22.128906 16.082031 22.304688 15.613281 22.304688 C 15.140625 22.304688 14.691406 22.128906 14.347656 21.808594 C 14.023438 21.507812 13.617188 21.34375 13.207031 21.34375 L 6.65625 21.34375 C 6.320312 21.34375 6.046875 21.070312 6.046875 20.734375 L 6.046875 9.074219 C 6.046875 8.738281 6.320312 8.464844 6.65625 8.464844 L 24.570312 8.464844 M 24.570312 7.933594 L 6.65625 7.933594 C 6.023438 7.933594 5.515625 8.445312 5.515625 9.074219 L 5.515625 20.734375 C 5.515625 21.367188 6.023438 21.878906 6.65625 21.878906 L 13.207031 21.878906 C 13.5 21.878906 13.769531 22.003906 13.984375 22.203125 C 14.414062 22.597656 14.984375 22.839844 15.613281 22.839844 C 16.242188 22.839844 16.8125 22.597656 17.238281 22.203125 C 17.453125 22.003906 17.722656 21.878906 18.015625 21.878906 L 24.570312 21.878906 C 25.199219 21.878906 25.710938 21.367188 25.710938 20.734375 L 25.710938 9.074219 C 25.710938 8.445312 25.199219 7.933594 24.570312 7.933594 Z M 24.570312 7.933594 "/>
<path style=" stroke:none;fill-rule:nonzero;fill:rgb(27.839661%,16.859436%,16.079712%);fill-opacity:1;" d="M 15.613281 18.992188 C 15.421875 18.992188 15.238281 19.027344 15.058594 19.101562 C 14.882812 19.175781 14.726562 19.277344 14.589844 19.414062 C 14.457031 19.550781 14.351562 19.707031 14.277344 19.882812 C 14.203125 20.058594 14.167969 20.242188 14.167969 20.433594 C 14.167969 20.625 14.203125 20.8125 14.277344 20.988281 C 14.351562 21.164062 14.457031 21.320312 14.589844 21.457031 C 14.726562 21.589844 14.882812 21.695312 15.058594 21.769531 C 15.238281 21.839844 15.421875 21.878906 15.613281 21.878906 C 15.804688 21.878906 15.988281 21.839844 16.164062 21.769531 C 16.34375 21.695312 16.5 21.589844 16.632812 21.457031 C 16.769531 21.320312 16.875 21.164062 16.945312 20.988281 C 17.019531 20.8125 17.058594 20.625 17.058594 20.433594 C 17.058594 20.242188 17.019531 20.058594 16.945312 19.882812 C 16.875 19.707031 16.769531 19.550781 16.632812 19.414062 C 16.5 19.277344 16.34375 19.175781 16.164062 19.101562 C 15.988281 19.027344 15.804688 18.992188 15.613281 18.992188 Z M 15.613281 18.992188 "/>
<path style=" stroke:none;fill-rule:nonzero;fill:rgb(100%,99.609375%,95.689392%);fill-opacity:1;" d="M 7.265625 20.167969 C 7.078125 20.167969 6.925781 20.015625 6.925781 19.828125 L 6.925781 8.945312 L 7.589844 7.261719 C 7.714844 6.949219 8.015625 6.746094 8.351562 6.746094 C 11.253906 6.75 13.816406 7.265625 15.378906 8.164062 L 15.441406 8.199219 L 15.773438 8.199219 L 15.832031 8.171875 C 17.503906 7.316406 20.109375 6.785156 22.804688 6.75 C 23.191406 6.75 23.519531 6.972656 23.65625 7.316406 L 24.300781 8.945312 L 24.300781 19.828125 C 24.300781 20.015625 24.148438 20.167969 23.957031 20.167969 Z M 7.265625 20.167969 "/>
<path style=" stroke:none;fill-rule:nonzero;fill:rgb(27.839661%,16.859436%,16.079712%);fill-opacity:1;" d="M 8.355469 7.011719 C 11.167969 7.015625 13.746094 7.53125 15.246094 8.394531 L 15.371094 8.464844 L 15.839844 8.464844 L 15.953125 8.40625 C 17.589844 7.570312 20.152344 7.050781 22.816406 7.019531 C 23.078125 7.019531 23.3125 7.171875 23.40625 7.414062 L 24.035156 8.996094 L 24.035156 19.828125 C 24.035156 19.867188 24 19.902344 23.960938 19.902344 L 7.265625 19.902344 C 7.222656 19.902344 7.191406 19.867188 7.191406 19.828125 L 7.191406 8.996094 L 7.839844 7.359375 C 7.921875 7.148438 8.125 7.011719 8.351562 7.011719 L 8.355469 7.011719 M 8.351562 6.480469 C 7.910156 6.480469 7.507812 6.746094 7.34375 7.160156 L 6.65625 8.894531 L 6.65625 19.828125 C 6.65625 20.164062 6.929688 20.433594 7.265625 20.433594 L 23.960938 20.433594 C 24.296875 20.433594 24.566406 20.164062 24.566406 19.828125 L 24.566406 8.894531 L 23.902344 7.21875 C 23.726562 6.773438 23.292969 6.484375 22.816406 6.484375 C 22.8125 6.484375 22.808594 6.484375 22.800781 6.484375 C 20.3125 6.515625 17.570312 6.980469 15.710938 7.933594 L 15.511719 7.933594 C 13.726562 6.90625 10.921875 6.480469 8.355469 6.480469 C 8.355469 6.480469 8.355469 6.480469 8.351562 6.480469 Z M 8.351562 6.480469 "/>
<path style=" stroke:none;fill-rule:nonzero;fill:rgb(74.508667%,72.938538%,79.60968%);fill-opacity:1;" d="M 23.199219 18.496094 L 15.625 18.871094 L 8.023438 18.496094 L 7.230469 19.871094 L 23.996094 19.871094 Z M 23.199219 18.496094 "/>
<path style=" stroke:none;fill-rule:nonzero;fill:rgb(27.839661%,16.859436%,16.079712%);fill-opacity:1;" d="M 15.613281 19.183594 C 15.566406 19.183594 15.523438 19.167969 15.488281 19.136719 C 15.445312 19.101562 15.421875 19.046875 15.421875 18.992188 L 15.421875 8.359375 C 15.421875 8.253906 15.507812 8.167969 15.613281 8.167969 C 15.71875 8.167969 15.804688 8.253906 15.804688 8.359375 L 15.804688 18.769531 C 17.976562 18.425781 20.589844 18.265625 23.042969 18.324219 L 23.042969 6.835938 C 23.042969 6.730469 23.128906 6.644531 23.234375 6.644531 C 23.339844 6.644531 23.425781 6.730469 23.425781 6.835938 L 23.425781 18.519531 C 23.425781 18.574219 23.402344 18.621094 23.367188 18.65625 C 23.328125 18.691406 23.28125 18.714844 23.226562 18.710938 C 20.660156 18.632812 17.894531 18.808594 15.644531 19.179688 C 15.632812 19.183594 15.621094 19.183594 15.613281 19.183594 Z M 15.613281 19.183594 "/>
<path style=" stroke:none;fill-rule:nonzero;fill:rgb(27.839661%,16.859436%,16.079712%);fill-opacity:1;" d="M 15.613281 19.265625 C 15.601562 19.265625 15.589844 19.261719 15.582031 19.261719 C 13.332031 18.882812 10.570312 18.710938 7.996094 18.785156 C 7.945312 18.785156 7.894531 18.769531 7.859375 18.730469 C 7.820312 18.695312 7.800781 18.648438 7.800781 18.59375 L 7.800781 6.835938 C 7.800781 6.730469 7.886719 6.644531 7.992188 6.644531 C 8.097656 6.644531 8.179688 6.730469 8.179688 6.835938 L 8.179688 18.398438 C 10.636719 18.339844 13.25 18.5 15.421875 18.847656 L 15.421875 8.359375 C 15.421875 8.253906 15.507812 8.167969 15.613281 8.167969 C 15.71875 8.167969 15.804688 8.253906 15.804688 8.359375 L 15.804688 19.074219 C 15.804688 19.128906 15.777344 19.183594 15.734375 19.21875 C 15.699219 19.25 15.65625 19.265625 15.613281 19.265625 Z M 16.753906 9.597656 C 16.71875 9.597656 16.683594 9.574219 16.667969 9.539062 C 16.648438 9.492188 16.671875 9.433594 16.71875 9.414062 C 18.324219 8.75 20.003906 8.460938 21.714844 8.550781 C 21.765625 8.550781 21.808594 8.597656 21.804688 8.648438 C 21.800781 8.699219 21.757812 8.738281 21.710938 8.738281 C 21.707031 8.738281 21.707031 8.738281 21.703125 8.738281 C 20.023438 8.648438 18.371094 8.9375 16.792969 9.589844 C 16.78125 9.59375 16.769531 9.597656 16.753906 9.597656 Z M 21.710938 10.265625 C 21.707031 10.265625 21.707031 10.265625 21.703125 10.265625 C 21.339844 10.246094 20.972656 10.242188 20.617188 10.257812 C 20.613281 10.257812 20.613281 10.257812 20.613281 10.257812 C 20.5625 10.257812 20.519531 10.21875 20.515625 10.167969 C 20.515625 10.113281 20.554688 10.070312 20.609375 10.066406 C 20.972656 10.050781 21.34375 10.054688 21.714844 10.074219 C 21.765625 10.078125 21.804688 10.121094 21.804688 10.175781 C 21.800781 10.226562 21.757812 10.265625 21.710938 10.265625 Z M 18.796875 10.484375 C 18.75 10.484375 18.710938 10.457031 18.703125 10.410156 C 18.691406 10.359375 18.722656 10.308594 18.777344 10.296875 C 19.046875 10.242188 19.324219 10.191406 19.597656 10.15625 C 19.652344 10.148438 19.699219 10.1875 19.707031 10.238281 C 19.714844 10.289062 19.675781 10.339844 19.625 10.34375 C 19.355469 10.382812 19.082031 10.429688 18.816406 10.484375 C 18.808594 10.484375 18.800781 10.484375 18.796875 10.484375 Z M 16.753906 11.121094 C 16.71875 11.121094 16.683594 11.101562 16.667969 11.0625 C 16.648438 11.015625 16.671875 10.960938 16.71875 10.9375 C 17.191406 10.742188 17.671875 10.578125 18.152344 10.449219 C 18.203125 10.4375 18.253906 10.464844 18.269531 10.515625 C 18.28125 10.566406 18.25 10.621094 18.199219 10.632812 C 17.730469 10.761719 17.257812 10.921875 16.792969 11.113281 C 16.78125 11.121094 16.769531 11.121094 16.753906 11.121094 Z M 16.753906 12.644531 C 16.71875 12.644531 16.683594 12.625 16.667969 12.585938 C 16.648438 12.539062 16.671875 12.484375 16.71875 12.464844 C 18.324219 11.796875 20.003906 11.507812 21.714844 11.597656 C 21.765625 11.601562 21.808594 11.644531 21.804688 11.699219 C 21.800781 11.75 21.757812 11.789062 21.710938 11.789062 C 21.707031 11.789062 21.707031 11.789062 21.703125 11.789062 C 20.023438 11.695312 18.371094 11.984375 16.792969 12.636719 C 16.78125 12.644531 16.769531 12.644531 16.753906 12.644531 Z M 18.523438 13.59375 C 18.480469 13.59375 18.441406 13.566406 18.429688 13.523438 C 18.417969 13.472656 18.449219 13.417969 18.5 13.40625 C 19.546875 13.160156 20.625 13.066406 21.714844 13.121094 C 21.765625 13.125 21.808594 13.171875 21.804688 13.222656 C 21.800781 13.273438 21.757812 13.3125 21.710938 13.3125 C 21.707031 13.3125 21.707031 13.3125 21.703125 13.3125 C 20.636719 13.257812 19.570312 13.351562 18.542969 13.59375 C 18.539062 13.59375 18.53125 13.59375 18.523438 13.59375 Z M 16.753906 14.171875 C 16.71875 14.171875 16.683594 14.148438 16.667969 14.113281 C 16.648438 14.0625 16.671875 14.007812 16.71875 13.988281 C 17.015625 13.863281 17.324219 13.75 17.632812 13.652344 C 17.683594 13.636719 17.734375 13.664062 17.75 13.710938 C 17.769531 13.761719 17.738281 13.816406 17.691406 13.832031 C 17.386719 13.929688 17.085938 14.042969 16.792969 14.164062 C 16.78125 14.167969 16.769531 14.171875 16.753906 14.171875 Z M 16.753906 14.171875 "/>
<path style=" stroke:none;fill-rule:nonzero;fill:rgb(27.839661%,16.859436%,16.079712%);fill-opacity:1;" d="M 16.753906 15.695312 C 16.71875 15.695312 16.683594 15.671875 16.667969 15.636719 C 16.648438 15.585938 16.671875 15.53125 16.71875 15.511719 C 18.175781 14.90625 19.820312 14.664062 21.738281 14.765625 C 21.792969 14.769531 21.832031 14.8125 21.828125 14.867188 C 21.824219 14.917969 21.792969 14.953125 21.726562 14.957031 C 19.839844 14.855469 18.222656 15.09375 16.792969 15.6875 C 16.78125 15.691406 16.769531 15.695312 16.753906 15.695312 Z M 16.753906 15.695312 "/>
<path style=" stroke:none;fill-rule:nonzero;fill:rgb(27.839661%,16.859436%,16.079712%);fill-opacity:1;" d="M 16.753906 17.21875 C 16.714844 17.21875 16.675781 17.191406 16.664062 17.148438 C 16.648438 17.097656 16.679688 17.046875 16.730469 17.03125 C 18.289062 16.585938 19.726562 16.429688 21.6875 16.480469 C 21.742188 16.480469 21.78125 16.527344 21.78125 16.578125 C 21.78125 16.628906 21.738281 16.671875 21.6875 16.671875 C 21.683594 16.671875 21.683594 16.671875 21.683594 16.671875 C 19.738281 16.617188 18.320312 16.777344 16.78125 17.214844 C 16.773438 17.21875 16.765625 17.21875 16.753906 17.21875 Z M 16.753906 17.21875 "/>
<path style=" stroke:none;fill-rule:nonzero;fill:rgb(27.839661%,16.859436%,16.079712%);fill-opacity:1;" d="M 11.566406 8.804688 C 11.5625 8.804688 11.558594 8.804688 11.554688 8.804688 C 10.910156 8.726562 10.25 8.703125 9.589844 8.738281 C 9.542969 8.742188 9.496094 8.703125 9.492188 8.648438 C 9.488281 8.597656 9.527344 8.550781 9.582031 8.550781 C 10.25 8.515625 10.921875 8.535156 11.578125 8.617188 C 11.628906 8.625 11.667969 8.671875 11.660156 8.722656 C 11.65625 8.769531 11.613281 8.804688 11.566406 8.804688 Z M 11.566406 8.804688 "/>
<path style=" stroke:none;fill-rule:nonzero;fill:rgb(27.839661%,16.859436%,16.079712%);fill-opacity:1;" d="M 13.015625 9.082031 C 13.007812 9.082031 13 9.082031 12.988281 9.078125 C 12.753906 9.019531 12.507812 8.964844 12.269531 8.917969 C 12.214844 8.90625 12.183594 8.859375 12.191406 8.804688 C 12.203125 8.753906 12.25 8.714844 12.304688 8.730469 C 12.550781 8.777344 12.796875 8.832031 13.039062 8.894531 C 13.089844 8.910156 13.121094 8.960938 13.105469 9.011719 C 13.09375 9.054688 13.054688 9.082031 13.015625 9.082031 Z M 13.015625 9.082031 "/>
<path style=" stroke:none;fill-rule:nonzero;fill:rgb(27.839661%,16.859436%,16.079712%);fill-opacity:1;" d="M 14.539062 9.597656 C 14.527344 9.597656 14.515625 9.59375 14.503906 9.589844 C 14.210938 9.46875 13.90625 9.355469 13.605469 9.257812 C 13.554688 9.242188 13.527344 9.1875 13.542969 9.140625 C 13.558594 9.089844 13.613281 9.0625 13.660156 9.078125 C 13.96875 9.175781 14.277344 9.289062 14.578125 9.414062 C 14.625 9.433594 14.648438 9.492188 14.628906 9.539062 C 14.613281 9.574219 14.578125 9.597656 14.539062 9.597656 Z M 14.539062 9.597656 "/>
<path style=" stroke:none;fill-rule:nonzero;fill:rgb(27.839661%,16.859436%,16.079712%);fill-opacity:1;" d="M 14.539062 11.121094 C 14.527344 11.121094 14.515625 11.121094 14.503906 11.113281 C 12.925781 10.460938 11.277344 10.171875 9.589844 10.265625 C 9.542969 10.269531 9.496094 10.226562 9.492188 10.175781 C 9.488281 10.121094 9.527344 10.078125 9.582031 10.074219 C 11.292969 9.984375 12.972656 10.273438 14.578125 10.9375 C 14.625 10.960938 14.648438 11.015625 14.628906 11.0625 C 14.613281 11.101562 14.578125 11.121094 14.539062 11.121094 Z M 14.539062 11.121094 "/>
<path style=" stroke:none;fill-rule:nonzero;fill:rgb(27.839661%,16.859436%,16.079712%);fill-opacity:1;" d="M 10.945312 11.796875 C 10.941406 11.796875 10.941406 11.796875 10.9375 11.796875 C 10.496094 11.765625 10.042969 11.765625 9.589844 11.789062 C 9.542969 11.785156 9.496094 11.75 9.492188 11.699219 C 9.488281 11.644531 9.527344 11.601562 9.582031 11.597656 C 10.042969 11.574219 10.5 11.578125 10.949219 11.605469 C 11.003906 11.609375 11.042969 11.65625 11.039062 11.707031 C 11.039062 11.757812 10.996094 11.796875 10.945312 11.796875 Z M 10.945312 11.796875 "/>
<path style=" stroke:none;fill-rule:nonzero;fill:rgb(27.839661%,16.859436%,16.079712%);fill-opacity:1;" d="M 14.539062 12.644531 C 14.527344 12.644531 14.515625 12.644531 14.503906 12.636719 C 13.6875 12.300781 12.847656 12.058594 12.007812 11.917969 C 11.953125 11.910156 11.917969 11.863281 11.929688 11.808594 C 11.9375 11.757812 11.984375 11.722656 12.039062 11.730469 C 12.894531 11.871094 13.75 12.117188 14.578125 12.460938 C 14.625 12.484375 14.648438 12.539062 14.628906 12.585938 C 14.613281 12.625 14.578125 12.644531 14.539062 12.644531 Z M 14.539062 12.644531 "/>
<path style=" stroke:none;fill-rule:nonzero;fill:rgb(27.839661%,16.859436%,16.079712%);fill-opacity:1;" d="M 14.539062 14.171875 C 14.527344 14.171875 14.515625 14.167969 14.503906 14.164062 C 12.925781 13.507812 11.277344 13.21875 9.589844 13.3125 C 9.542969 13.3125 9.496094 13.273438 9.492188 13.222656 C 9.488281 13.171875 9.527344 13.125 9.582031 13.121094 C 11.292969 13.035156 12.972656 13.320312 14.578125 13.988281 C 14.625 14.007812 14.648438 14.0625 14.628906 14.113281 C 14.613281 14.148438 14.578125 14.171875 14.539062 14.171875 Z M 14.539062 14.171875 "/>
<path style=" stroke:none;fill-rule:nonzero;fill:rgb(27.839661%,16.859436%,16.079712%);fill-opacity:1;" d="M 12.785156 15.160156 C 12.777344 15.160156 12.773438 15.160156 12.765625 15.160156 C 11.789062 14.960938 10.742188 14.894531 9.566406 14.957031 C 9.519531 14.957031 9.46875 14.917969 9.46875 14.867188 C 9.464844 14.8125 9.503906 14.769531 9.558594 14.765625 C 10.75 14.703125 11.8125 14.769531 12.804688 14.972656 C 12.855469 14.980469 12.890625 15.03125 12.878906 15.085938 C 12.867188 15.128906 12.828125 15.160156 12.785156 15.160156 Z M 12.785156 15.160156 "/>
<path style=" stroke:none;fill-rule:nonzero;fill:rgb(27.839661%,16.859436%,16.079712%);fill-opacity:1;" d="M 14.539062 15.695312 C 14.527344 15.695312 14.515625 15.691406 14.503906 15.6875 C 14.230469 15.574219 13.945312 15.472656 13.65625 15.382812 C 13.605469 15.367188 13.574219 15.3125 13.589844 15.265625 C 13.605469 15.214844 13.660156 15.1875 13.710938 15.199219 C 14.003906 15.289062 14.296875 15.394531 14.578125 15.511719 C 14.625 15.53125 14.648438 15.585938 14.628906 15.636719 C 14.613281 15.671875 14.578125 15.695312 14.539062 15.695312 Z M 14.539062 15.695312 "/>
<path style=" stroke:none;fill-rule:nonzero;fill:rgb(27.839661%,16.859436%,16.079712%);fill-opacity:1;" d="M 14.539062 17.21875 C 14.53125 17.21875 14.523438 17.21875 14.515625 17.214844 C 12.976562 16.777344 11.554688 16.621094 9.613281 16.671875 C 9.613281 16.671875 9.609375 16.671875 9.609375 16.671875 C 9.558594 16.671875 9.515625 16.628906 9.515625 16.578125 C 9.515625 16.527344 9.554688 16.480469 9.609375 16.480469 C 11.574219 16.429688 13.007812 16.585938 14.566406 17.03125 C 14.617188 17.046875 14.644531 17.097656 14.632812 17.148438 C 14.621094 17.191406 14.582031 17.21875 14.539062 17.21875 Z M 14.539062 17.21875 "/>
</g>
</svg>
